<?xml version="1.0" encoding="utf-8" ?>
<svg xmlns="http://www.w3.org/2000/svg" xmlns:xlink="http://www.w3.org/1999/xlink" width="1024" height="1024">
	<path fill="white" d="M144.794 467.861C145.559 471.358 142.809 480.168 142.261 484.074C141.766 487.606 141.685 491.33 141.969 494.886C144.184 522.693 174.218 514.136 186.117 525.104C188.213 527.037 189.274 529.559 189.304 532.399C189.369 538.678 184.534 548.887 180.048 553.221L179.486 552.838C182.282 547.657 185.719 541.187 183.859 535.17C180.285 523.61 157.312 523.626 147.623 518.732C142.384 516.086 137.814 511.985 136.041 506.234C132.318 494.157 139.312 478.339 144.794 467.861Z"/>
	<path fill="white" d="M494.532 372.99C496.104 373.18 497.647 373.434 499.157 373.923C503.112 375.204 507.687 376.795 509.558 380.863C510.696 383.335 510.509 386.047 509.521 388.532C506.2 396.886 495.85 403.394 488.035 406.949C482.578 408.635 478.433 408.501 473.043 406.729C478.54 401.156 483.745 395.451 487.058 388.265C489.395 383.195 491.068 377.405 494.532 372.99Z"/>
	<path fill="white" d="M821.257 419.231C823.703 419.163 826.008 419.605 827.854 421.279C830.389 423.578 830.698 428.217 830.415 431.366C828.883 448.417 815.692 472.232 816.234 489.288C816.375 493.718 818.964 495.586 821.878 498.462C823.098 499.666 823.393 500.282 823.398 501.986C822.939 502.881 822.593 503.441 821.789 504.083C818.858 506.421 813.379 505.751 809.872 505.5C808 505.068 806.08 504.664 804.263 504.036C800.385 502.695 796.172 500.631 794.407 496.684C788.627 483.759 805.164 433.63 810.442 419.438C814.071 419.515 817.634 419.455 821.257 419.231Z"/>
	<path fill="white" d="M429.929 379.162C430.635 379.099 431.287 379.049 431.997 379.069C439.091 379.27 445.621 380.731 450.708 385.969C450.357 390.378 449.95 395.614 446.977 399.108C445.729 400.574 443.824 402.625 441.79 402.75C438.917 401.061 440.013 393.756 438.588 390.651C438.191 389.786 437.525 388.925 436.6 388.62C435.231 388.169 433.956 388.502 432.746 389.2C424.596 393.897 419.892 412.341 417.497 421.013C422.117 421.343 426.831 421.242 431.466 421.319C430.301 424.967 428.91 428.531 427.542 432.106Q421.34 432.095 415.147 431.775C412.002 451.361 404.242 484.541 394.882 502.016C393.198 504.836 390.948 507.562 388.427 509.675C382.409 514.72 376.307 514.858 368.902 514.154C377.266 486.932 383.596 459.581 389.426 431.733L378.255 431.386L381.417 421.088Q386.503 421.073 391.581 421.348C393.918 411.921 397.646 402.114 403.477 394.268C410.375 384.987 418.657 380.763 429.929 379.162Z"/>
	<path fill="#E59C2A" d="M385.529 273.608C388.085 273.36 391.884 273.007 393.987 274.821C395.402 276.042 395.703 278.35 395.842 280.092C396.352 286.475 395.404 293.492 394.737 299.864C391.462 331.147 381.096 361.384 360.369 385.567C348.065 399.922 338.679 405.359 320.007 406.853C326.339 400.78 332.88 395.291 338.602 388.552C358.328 365.318 370.488 334.436 376.382 304.785C377.093 300.951 377.609 297.068 378.195 293.212C370.544 297.04 362.984 301.326 356.122 306.448Q354.866 307.374 353.633 308.33Q352.401 309.287 351.193 310.274Q349.984 311.262 348.801 312.279Q347.618 313.296 346.461 314.342Q345.303 315.389 344.172 316.464Q343.041 317.539 341.938 318.642Q340.834 319.745 339.758 320.875Q338.682 322.005 337.635 323.162Q336.588 324.318 335.57 325.501Q334.552 326.684 333.564 327.891Q332.576 329.099 331.619 330.331Q330.661 331.563 329.735 332.818Q328.808 334.073 327.913 335.352Q327.018 336.63 326.156 337.93Q325.293 339.23 324.463 340.552Q323.634 341.873 322.837 343.215Q322.041 344.556 321.278 345.918Q320.515 347.279 319.787 348.659Q319.058 350.038 318.364 351.436Q317.671 352.833 317.012 354.248Q316.353 355.662 315.73 357.093Q315.107 358.523 314.52 359.969Q313.933 361.415 313.382 362.875Q312.831 364.334 312.317 365.808Q311.803 367.281 311.326 368.766Q310.849 370.252 310.409 371.749Q309.969 373.246 309.567 374.753Q309.164 376.261 308.8 377.778Q308.435 379.295 308.109 380.821Q307.782 382.347 307.494 383.88Q307.206 385.414 306.956 386.954Q306.706 388.494 306.495 390.04C302.095 367.942 308.282 347.9 319.25 328.579C333.342 303.756 357.599 281.307 385.529 273.608Z"/>
	<path fill="white" d="M800.312 378.706C810.537 378.461 813.261 381.015 821.971 384.547C825.694 386.057 829.62 387.049 832.566 389.946C834.505 391.852 835.401 394.145 835.295 396.86C835.147 400.625 833.467 404.656 830.634 407.175C827.921 409.586 824.405 410.47 820.83 410.243Q820.203 410.208 819.583 410.111Q818.962 410.015 818.354 409.857Q817.746 409.699 817.157 409.482Q816.568 409.264 816.003 408.99Q815.438 408.715 814.903 408.386Q814.368 408.057 813.869 407.676Q813.369 407.295 812.91 406.867Q812.451 406.439 812.036 405.967Q811.613 405.492 811.243 404.974Q810.873 404.457 810.56 403.903Q810.247 403.349 809.994 402.765Q809.742 402.182 809.552 401.574Q809.362 400.967 809.238 400.343Q809.114 399.719 809.056 399.086Q808.998 398.453 809.008 397.816Q809.018 397.18 809.095 396.549C809.631 392.312 811.983 389.479 815.279 386.98L815.781 386.605C809.169 387.159 803.119 388.733 797.71 392.722C788.732 399.344 783.348 410.953 781.748 421.751C786.039 422.523 790.109 422.301 794.429 422.035C793.419 424.675 792.425 427.632 790.321 429.611C787.265 432.485 782.786 432.197 778.901 432.066C773.693 450.507 770.055 469.366 764.612 487.734C761.796 495.826 756.804 505.966 749.782 511.223C745.239 514.623 737.831 517.676 732.161 516.577C730.941 516.341 729.729 515.786 729.123 514.638C728.353 513.181 728.597 511.344 729.135 509.854C731.279 503.918 735.991 498.886 738.341 492.363C741.926 482.41 744.167 471.918 746.788 461.675C749.192 452.279 751.95 442.959 754.598 433.629C750.264 433.387 745.886 433.553 741.546 433.598C742.823 429.519 744.274 425.549 745.834 421.57C749.912 421.554 753.964 421.604 758.038 421.794C760.837 411.536 764.857 400.902 771.691 392.599C779.199 383.476 788.816 379.834 800.312 378.706Z"/>
	<path fill="white" d="M478.007 417.154C479.329 417.029 480.665 416.906 481.995 416.904C489.756 416.893 498.782 419.961 504.291 425.511C508.074 429.322 510.383 434.52 510.327 439.921C510.257 446.769 506.46 452.774 501.566 457.294C489.978 467.995 473.844 471.727 458.464 471.02C459.204 474.232 459.902 477.419 461.473 480.351C464.055 485.17 468.265 488.39 473.524 489.821C480.256 491.652 488.953 490.197 495.02 486.701C497.858 485.065 500.459 483.031 503.298 481.364C504.131 481.364 504.428 481.18 505.103 481.776C506.743 483.224 507.286 485.105 507.461 487.203C506.884 488.59 506.203 489.878 505.36 491.126C500.046 498.995 489.055 503.107 480.086 504.712C469.099 506.677 457.113 505.453 447.792 498.907C440.222 493.591 435.424 485.752 433.902 476.648C431.691 463.42 435.917 449.392 443.642 438.632C452.137 426.799 463.682 419.51 478.007 417.154ZM479.409 430.023C471.062 432.694 465.939 439.718 462.11 447.248C460.816 449.792 458.218 454.641 459.052 457.512C459.365 458.587 459.519 458.918 460.422 459.531C463.101 459.465 465.539 458.899 468.13 458.291C476.29 455.418 484.105 450.978 487.995 442.825C489.101 440.507 490.402 437.083 489.591 434.488C489.041 432.727 487.891 431.828 486.272 431.154C484.039 430.225 481.823 429.782 479.409 430.023Z"/>
	<path fill="white" d="M245.649 379.234C250.48 379.161 255.577 379.321 260.294 380.427C266.956 381.989 273.346 385.423 276.909 391.481C279.002 395.039 279.87 399.225 278.753 403.255Q278.582 403.876 278.352 404.478Q278.121 405.08 277.832 405.656Q277.543 406.232 277.198 406.777Q276.854 407.321 276.458 407.83Q276.061 408.338 275.617 408.805Q275.173 409.271 274.685 409.692Q274.196 410.113 273.669 410.483Q273.142 410.854 272.581 411.171C270.81 412.171 267.321 413.465 265.324 412.731C263.34 412.002 262.561 402.819 261.612 400.569C260.108 397.004 257.783 395.104 254.23 393.668C246.562 390.569 237.577 391.712 230.125 394.921C216.437 400.814 206.321 413.945 200.882 427.476C194.882 442.404 191.56 459.735 198.27 475.059C201.292 481.96 206.407 487.546 213.6 490.179C225.7 494.607 239.698 490.741 250.876 485.537L257.688 481.728C259.347 485.071 261.038 488.381 261.95 492.017Q260.812 492.841 259.647 493.624Q258.481 494.407 257.289 495.15Q256.097 495.892 254.879 496.592Q253.662 497.292 252.421 497.949Q251.18 498.606 249.916 499.22Q248.653 499.833 247.369 500.402Q246.085 500.971 244.782 501.495Q243.479 502.018 242.158 502.496Q240.837 502.974 239.501 503.406Q238.164 503.837 236.814 504.222Q235.463 504.606 234.1 504.943Q232.736 505.28 231.362 505.57Q229.988 505.859 228.604 506.1Q227.221 506.341 225.829 506.534Q224.438 506.726 223.041 506.87Q221.644 507.014 220.243 507.109C207.411 508.04 194.268 504.985 184.458 496.34C173.855 486.995 169.724 473.48 168.891 459.739C167.682 439.788 175.125 419.767 188.411 404.944C203.826 387.747 222.961 380.513 245.649 379.234Z"/>
	<path fill="white" d="M601.627 378.663C604.313 378.287 607.291 378.32 610 378.447C617.878 378.816 627.854 380.84 633.23 387.089C635.291 389.485 636.438 392.47 636.163 395.651C635.709 400.906 631.837 405.765 627.928 409.046C623.554 405.014 620.723 399.451 615.931 395.872C611.565 392.61 606.009 391.651 600.689 392.512C596.478 393.194 592.213 395.138 589.712 398.721C579.327 413.599 611.597 435.452 619.885 445.565C624.341 451.003 627.908 457.476 629.118 464.465C630.66 473.377 627.802 482.862 622.523 490.083C615.371 499.866 603.696 504.194 592.119 505.941C585.761 506.548 579.898 506.328 573.623 505.058C567.175 503.753 559.056 501.572 555.378 495.6C553.642 492.781 553.329 489.559 554.13 486.381C554.823 483.627 555.924 480.36 558.489 478.845C560.294 478.882 564.117 483.768 565.843 485.237Q566.356 485.678 566.89 486.092Q567.425 486.506 567.98 486.893Q568.535 487.279 569.108 487.637Q569.682 487.995 570.273 488.323Q570.865 488.651 571.472 488.949Q572.079 489.247 572.701 489.513Q573.322 489.78 573.956 490.014Q574.59 490.249 575.236 490.451Q575.881 490.653 576.536 490.822Q577.191 490.991 577.853 491.127Q578.516 491.262 579.184 491.364Q579.853 491.466 580.526 491.533Q581.198 491.601 581.874 491.634Q582.549 491.667 583.226 491.666Q583.902 491.665 584.577 491.63Q585.252 491.595 585.925 491.525C591.533 490.921 597.394 488.36 600.807 483.723C613.68 466.24 578.684 445.198 569.55 433.344C565.955 428.678 563.444 423.184 562.679 417.316C561.594 408.996 564.14 401.117 569.251 394.588C577.28 384.332 589.12 380.254 601.627 378.663Z"/>
	<path fill="white" d="M325.043 417.649C327.807 417.397 330.683 417.289 333.454 417.452C340.163 417.844 347.054 419.71 351.535 425.067C354.235 428.294 355.688 432.303 356.231 436.442C357.717 447.778 353.013 467.759 352.405 480.184C352.026 487.944 353.618 497.257 352.997 504.145C352.299 504.529 351.751 504.701 350.955 504.786C346.323 505.282 341.545 504.538 337.95 501.366C331.012 495.245 331.404 483.68 330.945 475.21C328.412 480.762 325.211 485.615 321.456 490.407C316.143 496.603 309.98 502.61 301.784 504.563C295.522 506.055 288.079 505.09 282.688 501.461C277.718 498.115 275.095 492.698 274.039 486.942C271.288 471.949 277.292 456.917 285.717 444.771C295.285 430.976 308.304 420.728 325.043 417.649ZM328.751 427.52C314.88 433.646 306.173 446.712 300.767 460.462C298.731 465.64 295.67 474.506 298.217 479.854C299.029 481.56 300.571 482.962 302.378 483.546C303.734 483.984 305.317 483.781 306.718 483.694C320.538 477.759 330.045 458.783 335.243 445.576C336.857 441.472 339.043 435.381 337.221 431.12C336.492 429.415 334.947 428.201 333.196 427.666C331.704 427.21 330.274 427.348 328.751 427.52Z"/>
	<path fill="white" d="M693.091 417.665C699.297 417.09 706.086 416.837 711.945 419.29C737.079 429.811 715.473 475.335 718.793 494.134C719.525 498.275 722.583 499.067 723.933 502.507C723.774 503.628 723.705 504.138 722.715 504.885C720.245 506.747 715.154 505.911 712.416 505.265C708.039 504.233 704.162 502.149 701.801 498.197C697.996 491.825 699.4 482.417 701.098 475.545C701.15 475.332 701.207 475.121 701.262 474.91C698.293 479.932 694.573 484.596 690.904 489.122C684.833 495.961 678.364 502.094 669.25 504.409C662.616 506.094 654.577 505.434 648.719 501.736C644.083 498.809 641.232 494.221 640.036 488.925C636.842 474.79 642.78 458.362 650.534 446.693C660.468 431.745 675.414 421.137 693.091 417.665ZM695.99 427.538C681.672 433.14 673.721 444.44 667.706 458.198C665.057 464.26 661 474.607 663.692 481.12C664.464 482.99 665.88 484.459 667.787 485.17C669.392 485.768 671.043 485.603 672.711 485.448C687.667 478.841 697.161 461.604 702.759 446.958C704.459 442.511 706.526 436.148 704.58 431.556C703.846 429.827 702.483 428.526 700.714 427.892C699.185 427.343 697.585 427.463 695.99 427.538Z"/>
	<path fill="white" d="M244.581 541.205C251.011 540.685 258.064 540.815 263.527 544.707C272.147 550.85 273.022 564.276 274.789 573.783C277.387 569.843 280.012 567.044 284.906 566.143C291.003 565.021 298.732 566.93 303.794 570.401C308.732 573.787 311.766 578.99 312.806 584.845C314.012 591.636 312.194 598.579 308.18 604.145Q307.812 604.656 307.419 605.148Q307.026 605.639 306.608 606.11Q306.19 606.581 305.749 607.03Q305.308 607.478 304.844 607.904Q304.38 608.33 303.896 608.731Q303.411 609.133 302.906 609.509Q302.401 609.885 301.878 610.235Q301.355 610.585 300.815 610.908Q300.274 611.231 299.718 611.526Q299.162 611.82 298.591 612.086Q298.021 612.352 297.437 612.589Q296.854 612.825 296.259 613.032Q295.665 613.238 295.06 613.414Q294.456 613.59 293.843 613.734Q293.231 613.879 292.611 613.992Q291.992 614.106 291.368 614.187C284.481 615.025 279.613 612.27 274.345 608.287C271.127 620.913 266.513 632.86 258.149 643.018C245.56 658.306 227.938 666.273 208.471 668.164C197.19 667.926 186.463 665.679 176.24 660.804C153.332 649.88 133.636 627.319 125.085 603.537C126.619 599.478 128.757 595.94 131.51 592.602C152.296 567.395 212.634 544.221 244.581 541.205ZM242.847 544.694C213.23 547.774 154.228 569.857 135.075 593.612C132.828 596.399 130.18 600.238 130.544 603.983C130.707 605.651 131.576 607.019 132.875 608.036C137.722 611.83 145.808 611.325 151.62 610.905C182.556 607.35 240.127 587.794 259.837 563.162C261.897 560.587 264.153 557.088 263.818 553.628C263.605 551.421 262.153 549.717 260.407 548.473C255.681 545.107 248.565 543.853 242.847 544.694ZM288.176 571.169C284.012 571.643 280.861 572.56 278.208 575.988C274.551 580.713 274.523 588.301 275.441 594C276.135 598.312 277.968 602.476 281.58 605.116C284.9 607.542 288.975 608.092 292.95 607.291C293.216 607.238 293.481 607.175 293.746 607.117C299.013 604.867 303.346 601.384 305.553 595.943C307.384 591.427 307.165 586.423 305.179 581.993Q304.81 581.164 304.36 580.375Q303.91 579.587 303.383 578.848Q302.857 578.108 302.259 577.425Q301.66 576.742 300.997 576.123Q300.333 575.503 299.611 574.954Q298.889 574.404 298.115 573.929Q297.342 573.454 296.524 573.059Q295.707 572.664 294.854 572.353C292.656 571.528 290.505 571.27 288.176 571.169Z"/>
	<path fill="white" d="M228.337 562.215C231.296 562.041 235.393 561.469 238.196 562.446C239.155 562.781 238.823 562.548 239.306 563.479C239.114 563.788 238.922 564.123 238.691 564.409C236.205 567.491 231.877 570.094 228.63 572.301C211.65 583.837 191.672 593.249 171.254 596.437C168.749 596.529 165.871 596.88 163.4 596.483C161.856 596.235 160.588 595.71 159.626 594.447C159.474 592.576 159.895 591.671 161.114 590.25C170.564 579.234 196.885 567.928 211.295 564.412C216.949 563.032 222.553 562.556 228.337 562.215ZM226.8 564.622C218.399 566.082 204.419 568.969 197.21 573.338C199.676 573.139 201.796 572.468 204.121 571.697C213.54 568.876 221.951 567.166 231.8 567.538L236.787 564.534C233.51 564.528 230.053 564.303 226.8 564.622Z"/>
	<path fill="#E59C2A" d="M829.224 484.382C842.006 487.87 855.447 496.961 866.37 504.416C893.816 523.146 918.757 549.171 925.136 582.782Q924.628 582.645 924.116 582.521C909.336 579.009 893.991 577.025 878.939 575.05Q830.511 568.552 781.667 567.204C603.557 562.428 416.311 606.296 255.538 682.208Q225.294 696.592 195.889 712.624Q166.485 728.655 138.01 746.285C137.106 746.837 136.638 747.093 135.569 747.094C133.543 745.875 132.523 743.369 131.383 741.358C142.918 731.81 155.578 723.505 168.002 715.16C182.178 705.639 196.479 696.075 211.121 687.285C351.256 603.162 512.255 549.494 676.356 545.633Q708.591 545.025 740.789 546.704Q772.986 548.383 804.984 552.34Q838.689 556.217 872.104 562.09C884.404 564.182 896.893 566.071 908.998 569.087C896.356 542.856 877.77 521.448 854.51 504.06C845.997 497.696 836.47 492.228 829.224 484.382Z"/>
</svg>
