<?xml version="1.0" encoding="utf-8" ?>
<svg xmlns="http://www.w3.org/2000/svg" xmlns:xlink="http://www.w3.org/1999/xlink" width="1024" height="1024">
	<path fill="#E4B845" d="M242.744 77.985L242.833 78.5082C241.363 82.8474 224.591 97.2828 220.723 101.044C209.741 111.723 199.584 123.418 189.874 135.251Q185.654 140.406 181.561 145.662Q177.468 150.917 173.504 156.271Q169.54 161.625 165.708 167.074Q161.875 172.523 158.176 178.063Q154.477 183.604 150.915 189.233Q147.352 194.862 143.927 200.575Q140.502 206.289 137.218 212.085Q133.933 217.88 130.79 223.754Q127.647 229.628 124.649 235.576Q121.65 241.525 118.797 247.545Q115.944 253.564 113.238 259.652Q110.532 265.739 107.975 271.891Q105.418 278.042 103.012 284.254Q100.605 290.466 98.3509 296.734Q96.0964 303.003 93.9951 309.324Q91.8939 315.646 89.9471 322.017Q88.0003 328.388 86.2091 334.804Q84.4179 341.22 82.7834 347.678Q81.1489 354.136 79.6721 360.632Q78.1952 367.128 76.8769 373.658Q75.5586 380.188 74.3996 386.748Q73.2406 393.308 72.2416 399.894Q71.2426 406.481 70.4041 413.089Q69.5657 419.698 68.8884 426.325Q68.211 432.952 67.6952 439.594Q67.1793 446.236 66.8253 452.888Q66.4712 459.54 66.2792 466.199Q66.0871 472.858 66.0571 479.519Q66.0272 486.181 66.1594 492.841Q66.2916 499.502 66.5858 506.157Q66.88 512.812 67.3362 519.458Q67.7923 526.104 68.41 532.737Q68.9803 538.689 69.6962 544.626Q70.4122 550.562 71.2734 556.48Q72.1347 562.397 73.1407 568.291Q74.1467 574.186 75.2968 580.054Q76.447 585.922 77.7406 591.76Q79.0343 597.598 80.4706 603.402Q81.9069 609.207 83.4851 614.974Q85.0632 620.742 86.7822 626.469Q88.5013 632.196 90.3602 637.88Q92.219 643.563 94.2166 649.199Q96.2142 654.835 98.3494 660.42Q100.485 666.006 102.756 671.537Q105.027 677.069 107.434 682.543Q109.84 688.017 112.38 693.43Q114.919 698.844 117.591 704.193Q120.262 709.543 123.064 714.825Q125.866 720.108 128.797 725.32Q131.727 730.532 134.785 735.671Q137.842 740.81 141.025 745.872Q144.207 750.935 147.513 755.918Q150.818 760.901 154.245 765.801Q157.672 770.701 161.217 775.516Q164.763 780.331 168.426 785.058Q172.088 789.784 175.866 794.42Q179.643 799.055 183.533 803.596Q187.423 808.138 191.423 812.582Q195.423 817.027 199.531 821.372Q203.639 825.718 207.852 829.961Q212.065 834.204 216.381 838.343Q220.696 842.482 225.112 846.514Q229.528 850.546 234.041 854.468Q238.555 858.39 243.163 862.201C257.786 874.259 272.479 886.141 288.423 896.429C301.829 905.079 316.459 912.045 328.833 922.193C323.05 919.969 317.479 917.403 311.875 914.766C297.252 907.989 283.485 899.647 269.936 890.961Q260.935 885.21 252.188 879.079Q243.441 872.949 234.965 866.449Q226.488 859.95 218.298 853.093Q210.107 846.237 202.218 839.037Q194.328 831.836 186.754 824.305Q179.179 816.773 171.934 808.924Q164.689 801.076 157.787 792.924Q150.884 784.773 144.337 776.333Q140.697 771.686 137.172 766.95Q133.647 762.214 130.24 757.393Q126.832 752.573 123.545 747.669Q120.257 742.766 117.091 737.784Q113.924 732.801 110.882 727.742Q107.839 722.684 104.921 717.551Q102.004 712.419 99.2131 707.217Q96.4226 702.015 93.7608 696.745Q91.0991 691.476 88.5677 686.143Q86.0363 680.81 83.6367 675.416Q81.2372 670.022 78.9709 664.571Q76.7047 659.12 74.5732 653.615Q72.4416 648.11 70.4461 642.554Q68.4505 636.998 66.5922 631.395Q64.7338 625.791 63.0137 620.144Q61.2937 614.497 59.713 608.809Q58.1323 603.121 56.6919 597.396Q55.2515 591.671 53.9522 585.912Q52.653 580.154 51.4958 574.365Q50.3385 568.576 49.3239 562.76Q48.3093 556.945 47.438 551.106Q46.5666 545.267 45.8391 539.409Q45.1116 533.55 44.5283 527.676Q43.945 521.801 43.5063 515.914Q43.0676 510.027 42.7738 504.131Q42.4799 498.235 42.3311 492.333Q42.1823 486.431 42.1787 480.528Q42.175 474.625 42.3164 468.723Q42.4579 462.821 42.7444 456.925Q43.0309 451.028 43.4623 445.141Q43.8936 439.253 44.4696 433.378Q45.0456 427.502 45.7658 421.643C61.6591 287.546 137.154 161.095 242.744 77.985Z"/>
	<path fill="#E4B845" d="M541.894 41.7306C579.282 40.3713 618.251 45.1191 654.612 53.7034C748.181 75.7939 831.839 125.76 901.186 191.649C908.855 198.936 916.118 206.619 923.421 214.269C929.847 221.001 936.766 227.433 941.684 235.389C929.529 227.354 918.739 214.992 907.69 205.327C886.082 186.426 863.692 168.968 839.591 153.356Q833.992 149.719 828.304 146.222Q822.617 142.725 816.844 139.37Q811.072 136.015 805.218 132.804Q799.364 129.593 793.433 126.528Q787.501 123.464 781.495 120.547Q775.49 117.63 769.414 114.862Q763.337 112.095 757.195 109.479Q751.052 106.864 744.846 104.401Q738.64 101.938 732.375 99.6298Q726.11 97.3215 719.79 95.1692Q713.47 93.0169 707.098 91.0219Q700.727 89.0269 694.308 87.1904Q687.889 85.3539 681.426 83.677Q674.964 82.0001 668.461 80.4839Q661.959 78.9676 655.421 77.613Q648.884 76.2584 642.314 75.0661Q635.745 73.8739 629.148 72.8449Q622.551 71.8158 615.931 70.9506Q609.311 70.0853 602.671 69.3843Q596.031 68.6834 589.376 68.1472Q582.721 67.611 576.055 67.2399Q569.389 66.8687 562.715 66.6629Q556.042 66.4571 549.365 66.4167Q542.689 66.3763 536.013 66.5014Q529.338 66.6265 522.668 66.9169Q515.997 67.2074 509.336 67.663Q502.675 68.1187 496.028 68.7393Q489.38 69.3598 482.75 70.145Q476.119 70.9301 469.511 71.8793Q462.902 72.8284 456.319 73.9411Q449.735 75.0537 443.182 76.3292Q436.628 77.6046 430.108 79.0421C319.623 103.514 225.118 167.342 156.675 256.726Q140.861 277.778 127.168 300.268C122.07 308.652 117.255 321.036 110.695 327.926L110.196 328.439C112.382 317.764 118.552 307.338 123.682 297.814Q127.421 290.736 131.392 283.785Q135.363 276.835 139.562 270.019Q143.761 263.204 148.183 256.531Q152.605 249.858 157.245 243.335Q161.885 236.812 166.739 230.447Q171.592 224.081 176.653 217.879Q181.715 211.677 186.978 205.646Q192.242 199.615 197.702 193.761Q201.035 190.199 204.439 186.705Q207.844 183.211 211.319 179.788Q214.794 176.364 218.337 173.011Q221.881 169.659 225.492 166.379Q229.103 163.099 232.78 159.894Q236.457 156.688 240.199 153.557Q243.94 150.427 247.744 147.373Q251.548 144.32 255.414 141.344Q259.279 138.368 263.204 135.472Q267.13 132.575 271.113 129.759Q275.096 126.942 279.136 124.208Q283.175 121.473 287.269 118.821Q291.364 116.169 295.511 113.6Q299.658 111.032 303.857 108.549Q308.056 106.065 312.304 103.667Q316.552 101.27 320.849 98.9586Q325.145 96.6477 329.487 94.4245Q333.829 92.2014 338.215 90.0669Q342.602 87.9325 347.031 85.8876Q351.46 83.8427 355.929 81.8882Q360.399 79.9337 364.907 78.0705Q369.416 76.2072 373.961 74.436Q378.506 72.6647 383.087 70.9861Q387.667 69.3076 392.28 67.7225Q396.894 66.1373 401.539 64.6463Q406.183 63.1552 410.857 61.7588Q415.532 60.3625 420.233 59.0614Q424.935 57.7602 429.662 56.5549Q434.388 55.3496 439.139 54.2406Q443.889 53.1316 448.661 52.1193Q453.434 51.107 458.225 50.1919Q463.017 49.2768 467.826 48.4593C492.459 44.2983 516.969 42.581 541.894 41.7306Z"/>
	<path fill="#E4B845" d="M910.913 702.902C910.932 703.111 910.982 703.319 910.969 703.529C910.595 709.417 903.936 720.554 901.183 726.03Q896.747 734.982 891.905 743.721Q887.064 752.46 881.828 760.969Q876.591 769.477 870.971 777.737Q865.35 785.996 859.358 793.99Q853.365 801.984 847.013 809.695Q840.66 817.406 833.961 824.818Q827.263 832.23 820.232 839.328Q813.201 846.426 805.852 853.194Q801.549 857.223 797.15 861.146Q792.75 865.07 788.257 868.884Q783.763 872.699 779.178 876.404Q774.592 880.108 769.918 883.699Q765.244 887.291 760.483 890.767Q755.723 894.244 750.879 897.603Q746.036 900.963 741.112 904.203Q736.188 907.444 731.186 910.563Q726.185 913.683 721.109 916.68Q716.033 919.677 710.885 922.549Q705.738 925.421 700.522 928.167Q695.306 930.913 690.025 933.532Q684.743 936.15 679.4 938.638Q674.056 941.127 668.654 943.485Q663.251 945.843 657.793 948.068Q652.334 950.294 646.823 952.386Q641.312 954.478 635.752 956.435Q630.192 958.392 624.586 960.213Q618.979 962.034 613.33 963.718Q607.681 965.402 601.993 966.947Q596.304 968.493 590.58 969.9Q584.856 971.307 579.099 972.573Q573.342 973.84 567.556 974.967Q561.77 976.093 555.958 977.078Q550.146 978.063 544.312 978.906Q538.478 979.749 532.625 980.45Q526.773 981.15 520.904 981.708Q515.036 982.266 509.156 982.681Q503.276 983.096 497.388 983.367Q491.499 983.639 485.606 983.767Q479.713 983.895 473.818 983.879Q467.924 983.863 462.031 983.704C317.989 978.829 192.085 908.612 95.1651 804.861C90.72 799.969 86.4596 795.096 82.9543 789.465C93.1464 797.124 101.648 806.907 111.107 815.415Q137.227 838.681 165.568 859.183Q169.857 862.194 174.202 865.123Q178.548 868.052 182.949 870.896Q187.35 873.741 191.804 876.501Q196.259 879.261 200.766 881.935Q205.272 884.609 209.829 887.197Q214.386 889.784 218.992 892.284Q223.598 894.783 228.251 897.194Q232.903 899.605 237.601 901.927Q242.299 904.248 247.041 906.479Q251.783 908.71 256.566 910.85Q261.35 912.99 266.174 915.037Q270.997 917.085 275.859 919.04Q280.721 920.995 285.62 922.856Q290.518 924.718 295.452 926.485Q300.385 928.252 305.351 929.925Q310.318 931.597 315.315 933.174Q320.312 934.751 325.339 936.233Q330.366 937.714 335.42 939.098Q340.474 940.483 345.554 941.77Q350.633 943.058 355.737 944.247Q360.84 945.437 365.965 946.529Q371.091 947.621 376.236 948.615Q381.381 949.609 386.544 950.503Q391.708 951.398 396.887 952.194Q402.067 952.99 407.261 953.686Q412.455 954.383 417.661 954.98Q422.867 955.577 428.084 956.074Q433.3 956.571 438.526 956.968Q443.751 957.365 448.983 957.662Q454.215 957.958 459.451 958.155Q464.688 958.352 469.927 958.448Q475.167 958.544 480.407 958.54C507.01 958.616 534.034 957.154 560.296 952.746Q565.813 951.872 571.309 950.87Q576.805 949.867 582.276 948.738Q587.747 947.609 593.19 946.353Q598.634 945.097 604.046 943.715Q609.459 942.333 614.838 940.826Q620.217 939.319 625.56 937.688Q630.903 936.057 636.207 934.302Q641.51 932.547 646.772 930.669Q652.033 928.792 657.249 926.793Q662.466 924.794 667.634 922.674Q672.803 920.555 677.921 918.316Q683.039 916.077 688.104 913.72Q693.169 911.363 698.177 908.889Q703.186 906.416 708.136 903.826Q713.086 901.237 717.975 898.534Q722.864 895.83 727.688 893.014Q732.513 890.198 737.271 887.271Q742.029 884.343 746.717 881.307Q751.406 878.27 756.023 875.125Q760.64 871.98 765.183 868.729Q769.726 865.478 774.192 862.122Q778.659 858.767 783.046 855.309Q787.433 851.85 791.739 848.291Q796.045 844.732 800.267 841.074Q804.489 837.416 808.625 833.661Q812.761 829.906 816.809 826.056Q820.856 822.206 824.814 818.263Q828.771 814.321 832.636 810.287Q836.501 806.254 840.272 802.131Q844.042 798.009 847.716 793.801Q851.389 789.592 854.964 785.3Q858.539 781.007 862.014 776.633Q878.139 756.636 891.766 734.86C898.253 724.288 903.705 713.011 910.913 702.902Z"/>
	<path fill="#E4B845" d="M694.425 107.035C704.356 108.783 714.58 114.253 723.65 118.573C775.602 143.319 822.024 180.157 860.291 222.949Q864.2 227.325 868.002 231.796Q871.803 236.266 875.495 240.828Q879.186 245.39 882.765 250.04Q886.344 254.691 889.809 259.427Q893.274 264.164 896.622 268.983Q899.97 273.803 903.199 278.702Q906.429 283.602 909.538 288.579Q912.647 293.556 915.634 298.607Q918.621 303.658 921.484 308.781Q924.347 313.903 927.084 319.094Q929.821 324.285 932.43 329.541Q935.04 334.797 937.521 340.115Q940.002 345.434 942.352 350.811Q944.702 356.188 946.921 361.62Q949.139 367.053 951.225 372.538Q953.31 378.024 955.261 383.558Q957.212 389.092 959.028 394.673Q960.843 400.253 962.522 405.876Q964.201 411.499 965.742 417.161Q967.284 422.824 968.687 428.522Q970.089 434.22 971.353 439.951Q972.616 445.681 973.739 451.441Q974.863 457.201 975.845 462.986Q976.828 468.772 977.669 474.579Q978.51 480.387 979.209 486.214Q979.909 492.04 980.466 497.882Q981.023 503.724 981.437 509.577Q981.852 515.431 982.123 521.293Q982.395 527.155 982.523 533.022Q982.652 538.889 982.637 544.757Q982.623 550.625 982.465 556.491Q982.308 562.357 982.007 568.218Q981.696 572.965 981.297 577.705Q980.898 582.445 980.411 587.178Q979.925 591.91 979.351 596.632Q978.777 601.354 978.116 606.065Q977.455 610.776 976.707 615.474Q975.958 620.172 975.124 624.855Q974.289 629.538 973.368 634.205Q972.446 638.872 971.439 643.522Q970.432 648.171 969.339 652.801Q968.246 657.43 967.067 662.039Q965.889 666.648 964.625 671.234Q963.362 675.82 962.013 680.382Q960.665 684.944 959.233 689.481Q957.801 694.017 956.285 698.526Q954.77 703.035 953.171 707.516Q951.572 711.996 949.891 716.446Q948.209 720.896 946.446 725.314Q944.682 729.732 942.838 734.117Q940.993 738.502 939.068 742.852Q937.142 747.202 935.136 751.516Q933.131 755.829 931.046 760.105Q928.961 764.381 926.797 768.617Q924.634 772.854 922.392 777.05Q920.151 781.246 917.832 785.399Q915.513 789.553 913.118 793.663Q910.723 797.773 908.252 801.838Q905.782 805.903 903.236 809.922Q900.691 813.941 898.071 817.912Q895.452 821.883 892.76 825.805Q890.068 829.727 887.303 833.598Q884.539 837.47 881.704 841.29Q878.869 845.109 875.963 848.876C851.204 881.313 823.212 910.385 792.85 937.571C788.828 941.009 785.443 944.548 780.53 946.748L779.98 946.44C783.044 940.6 794.284 931.3 799.372 926.15Q808.353 917.073 816.897 907.583Q829.635 893.452 841.383 878.488Q853.131 863.524 863.836 847.796C921.685 762.994 957.576 656.274 958.965 553.335Q959.054 540.784 958.52 528.245Q957.985 515.705 956.828 503.207Q955.671 490.71 953.895 478.285Q952.118 465.86 949.726 453.539C927.184 334.17 865.309 226.065 767.686 152.609Q746.102 136.387 722.625 123.051C713.543 117.848 703.574 113.38 694.978 107.423L694.425 107.035Z"/>
	<path fill="#441F26" d="M497.792 96.7046Q502.631 96.5556 507.471 96.5209Q512.312 96.4863 517.152 96.5659Q521.992 96.6456 526.829 96.8396Q531.666 97.0335 536.497 97.3417Q541.328 97.6499 546.151 98.072Q550.973 98.4942 555.784 99.0301Q560.595 99.5661 565.393 100.216Q570.19 100.865 574.97 101.628Q579.75 102.39 584.512 103.265Q589.273 104.141 594.012 105.128Q598.751 106.115 603.465 107.215Q608.18 108.314 612.867 109.524Q617.554 110.734 622.211 112.054Q626.868 113.375 631.493 114.805Q636.118 116.235 640.708 117.774Q645.297 119.313 649.849 120.96Q654.402 122.607 658.914 124.361Q663.425 126.115 667.895 127.975Q672.364 129.835 676.788 131.8Q681.212 133.765 685.588 135.835Q689.965 137.904 694.291 140.075Q698.617 142.247 702.891 144.521Q707.165 146.794 711.384 149.168Q715.603 151.542 719.765 154.014Q723.926 156.487 728.028 159.057Q732.13 161.628 736.171 164.294Q740.211 166.961 744.187 169.722Q748.163 172.483 752.073 175.337Q755.983 178.191 759.824 181.137Q763.666 184.083 767.436 187.119Q771.207 190.155 774.905 193.279Q778.603 196.403 782.226 199.613C865.031 273.002 916.929 371.924 923.526 483.081Q923.854 488.228 924.055 493.382Q924.257 498.536 924.331 503.694Q924.405 508.851 924.351 514.009Q924.298 519.166 924.117 524.321Q923.937 529.476 923.63 534.625Q923.322 539.773 922.888 544.913Q922.453 550.053 921.892 555.18Q921.331 560.307 920.643 565.419Q919.956 570.531 919.143 575.624Q918.33 580.718 917.391 585.79Q916.452 590.861 915.389 595.908Q914.325 600.955 913.138 605.975Q911.95 610.994 910.639 615.983Q909.328 620.971 907.894 625.926Q906.461 630.88 904.905 635.798Q903.349 640.716 901.673 645.594Q899.997 650.472 898.201 655.307Q896.405 660.142 894.49 664.931Q892.575 669.72 890.543 674.461Q888.51 679.202 886.361 683.891Q884.213 688.58 881.949 693.214Q879.685 697.849 877.308 702.426Q874.931 707.004 872.441 711.521Q869.952 716.038 867.352 720.493Q864.751 724.947 862.042 729.336Q859.333 733.726 856.516 738.047Q853.7 742.367 850.777 746.617Q847.855 750.868 844.828 755.044Q841.802 759.221 838.674 763.322Q835.545 767.423 832.317 771.445Q829.088 775.468 825.761 779.409Q822.434 783.351 819.011 787.209C762.107 851.228 684.434 899.164 600.685 918.168C575.976 923.775 550.684 926.496 525.423 927.962Q520.645 928.101 515.865 928.129Q511.086 928.156 506.307 928.07Q501.528 927.985 496.752 927.787Q491.976 927.589 487.206 927.279Q482.437 926.969 477.675 926.547Q472.914 926.124 468.164 925.59Q463.414 925.056 458.678 924.41Q453.942 923.764 449.223 923.007Q444.503 922.25 439.803 921.383Q435.103 920.515 430.424 919.537Q425.745 918.559 421.091 917.471Q416.437 916.383 411.809 915.186Q407.182 913.989 402.584 912.683Q397.986 911.377 393.419 909.964Q388.853 908.55 384.322 907.03Q379.79 905.509 375.296 903.883Q370.801 902.256 366.346 900.524Q361.891 898.792 357.478 896.956Q353.065 895.119 348.697 893.18Q344.328 891.24 340.006 889.198Q335.685 887.156 331.412 885.013Q327.14 882.87 322.919 880.628Q318.698 878.385 314.531 876.043Q310.364 873.702 306.253 871.263Q302.142 868.824 298.09 866.289Q294.038 863.754 290.046 861.124Q286.055 858.495 282.126 855.772Q278.198 853.049 274.334 850.234Q270.471 847.42 266.675 844.516Q262.879 841.611 259.152 838.618Q255.425 835.625 251.77 832.545Q248.115 829.465 244.533 826.3Q240.614 822.929 236.779 819.462Q232.944 815.995 229.197 812.435Q225.449 808.874 221.79 805.222Q218.131 801.57 214.564 797.829Q210.997 794.087 207.523 790.259Q204.049 786.43 200.671 782.517Q197.293 778.604 194.013 774.609Q190.732 770.613 187.552 766.538Q184.371 762.463 181.292 758.31Q178.214 754.157 175.238 749.93Q172.263 745.703 169.393 741.403Q166.523 737.103 163.76 732.734Q160.998 728.365 158.344 723.928Q155.69 719.492 153.146 714.991Q150.603 710.491 148.172 705.929Q145.74 701.367 143.422 696.746Q141.104 692.125 138.901 687.449Q136.698 682.772 134.611 678.042Q132.525 673.313 130.556 668.533Q128.586 663.753 126.736 658.926Q124.885 654.099 123.155 649.228Q121.424 644.357 119.814 639.444Q118.205 634.532 116.717 629.581Q115.229 624.63 113.864 619.644Q112.499 614.658 111.258 609.64Q110.017 604.622 108.9 599.574Q107.783 594.527 106.791 589.453Q105.799 584.38 104.933 579.283Q104.067 574.187 103.327 569.071Q102.587 563.954 101.974 558.821Q101.361 553.688 100.875 548.542Q100.389 543.395 100.03 538.238Q99.7053 533.156 99.5062 528.067Q99.3071 522.978 99.2337 517.886Q99.1604 512.794 99.2129 507.702Q99.2653 502.609 99.4436 497.52Q99.6218 492.43 99.9257 487.347Q100.23 482.263 100.659 477.189Q101.088 472.114 101.643 467.052Q102.197 461.99 102.877 456.942Q103.556 451.895 104.36 446.867Q105.164 441.838 106.092 436.83Q107.02 431.823 108.071 426.84Q109.122 421.857 110.297 416.902Q111.471 411.946 112.767 407.021Q114.063 402.096 115.48 397.205Q116.897 392.314 118.435 387.459Q119.973 382.604 121.63 377.788Q123.287 372.973 125.063 368.2Q126.838 363.427 128.731 358.699Q130.624 353.971 132.634 349.292Q134.643 344.612 136.767 339.984Q138.891 335.355 141.129 330.781Q143.367 326.206 145.717 321.688Q148.067 317.17 150.528 312.712Q152.989 308.253 155.559 303.857Q158.13 299.46 160.808 295.129Q163.486 290.797 166.271 286.533Q169.055 282.269 171.944 278.075Q174.833 273.881 177.824 269.76Q180.816 265.639 183.908 261.592Q187.001 257.546 190.192 253.578Q193.383 249.609 196.672 245.721Q199.96 241.832 203.344 238.026Q206.083 234.902 208.884 231.833Q211.685 228.765 214.546 225.752Q217.408 222.74 220.329 219.785Q223.249 216.83 226.228 213.934Q229.207 211.038 232.243 208.202Q235.28 205.366 238.372 202.59Q241.464 199.815 244.61 197.102Q247.757 194.389 250.957 191.739Q254.157 189.089 257.409 186.503Q260.661 183.918 263.964 181.397Q267.267 178.877 270.619 176.423Q273.972 173.968 277.372 171.581Q280.773 169.194 284.22 166.876Q287.668 164.557 291.161 162.307Q294.654 160.057 298.191 157.878Q301.728 155.698 305.307 153.589Q308.887 151.48 312.508 149.443Q316.129 147.406 319.79 145.441Q323.451 143.476 327.15 141.585Q330.849 139.693 334.585 137.876Q338.322 136.058 342.093 134.315Q345.865 132.573 349.67 130.905Q353.476 129.238 357.314 127.647Q361.152 126.056 365.021 124.541Q368.89 123.027 372.788 121.589Q376.686 120.152 380.612 118.793Q384.538 117.434 388.491 116.153Q392.443 114.872 396.42 113.67Q400.397 112.468 404.398 111.345Q408.398 110.223 412.42 109.18Q416.441 108.138 420.483 107.175Q424.525 106.213 428.585 105.331C451.49 100.486 474.473 98.2753 497.792 96.7046ZM700.014 157.033Q703.967 160.104 707.753 163.378C709.798 168.548 711.187 174.721 711.702 180.254C712.363 187.363 711.858 194.763 711.523 201.882C710.906 215.009 709.99 228.076 708.143 241.094C707.145 248.137 705.447 255.183 704.733 262.247C703.558 273.876 703.941 286.142 703.621 297.86C703.497 302.404 702.278 310.642 704.472 314.557C706.977 315.964 725.308 314.053 729.786 314.145C732.939 314.21 736.25 314.641 738.473 317.124C740.695 319.607 740.317 322.256 740.114 325.306C747.713 327.688 755.736 328.188 763.42 330.263C785.905 336.338 806.328 349.843 822.413 366.505C846.537 391.496 858.49 424.818 857.861 459.369Q857.828 460.995 857.754 462.619Q857.681 464.244 857.567 465.866Q857.453 467.488 857.299 469.107Q857.145 470.726 856.951 472.34Q856.756 473.955 856.522 475.564Q856.288 477.173 856.014 478.776Q855.74 480.379 855.426 481.975Q855.112 483.57 854.759 485.158Q854.406 486.745 854.013 488.323Q853.621 489.901 853.189 491.469Q852.758 493.037 852.287 494.594Q851.817 496.15 851.308 497.695Q850.799 499.239 850.253 500.771Q849.706 502.302 849.121 503.82Q848.536 505.337 847.914 506.839Q847.291 508.342 846.632 509.828Q845.973 511.315 845.277 512.784Q844.581 514.254 843.848 515.706Q843.116 517.158 842.348 518.591Q841.58 520.025 840.776 521.439Q839.973 522.852 839.135 524.246Q838.296 525.639 837.424 527.012Q836.551 528.384 835.645 529.734Q834.739 531.084 833.799 532.411Q832.859 533.739 831.887 535.042Q830.915 536.346 829.911 537.625Q828.906 538.904 827.871 540.157Q826.835 541.411 825.768 542.639Q824.702 543.866 823.605 545.067Q822.509 546.268 821.383 547.441Q820.257 548.614 819.102 549.759Q817.947 550.904 816.764 552.02C792.004 575.671 759.655 588.849 725.317 587.923Q723.753 587.89 722.19 587.819Q720.627 587.747 719.066 587.637Q717.506 587.526 715.948 587.377Q714.391 587.228 712.838 587.04Q711.285 586.852 709.737 586.625Q708.189 586.399 706.647 586.134Q705.105 585.868 703.57 585.565Q702.035 585.261 700.508 584.92Q698.982 584.578 697.464 584.199Q695.946 583.819 694.438 583.402Q692.93 582.985 691.433 582.53Q689.936 582.075 688.451 581.584Q686.966 581.092 685.493 580.563Q684.021 580.035 682.562 579.469Q681.103 578.904 679.658 578.303Q678.214 577.702 676.785 577.064Q675.356 576.427 673.944 575.755Q672.531 575.082 671.135 574.375Q669.74 573.667 668.363 572.925Q666.985 572.183 665.627 571.407Q664.268 570.631 662.93 569.821Q661.591 569.012 660.273 568.169Q658.955 567.326 657.658 566.451Q656.361 565.575 655.087 564.668Q653.812 563.761 652.561 562.822Q651.309 561.883 650.081 560.913Q648.854 559.943 647.65 558.943Q646.447 557.943 645.269 556.914Q644.091 555.884 642.939 554.825Q641.788 553.766 640.662 552.679Q639.537 551.592 638.439 550.478Q637.342 549.363 636.272 548.221C609.602 519.743 598.747 484.11 599.958 445.669C597.18 445.489 593.26 445.348 591.337 443.022C589.329 440.593 589.987 436.462 590.572 433.633C598.928 393.165 617.77 355.898 653.284 332.874C649.058 322.668 645.039 312.365 640.929 302.112C635.709 306.091 630.497 310.112 625.034 313.754C617.927 318.493 608.799 322.699 603.017 328.983C596.791 335.749 591.121 350.909 586.534 359.594Q578.393 374.683 569.661 389.438C554.359 415.312 536.994 439.915 521.044 465.387C522.533 470.176 523.669 474.741 523.615 479.789C523.478 492.519 516.571 501.59 507.908 510.191C512.704 515.119 516.771 520.596 520.805 526.145C526.412 526.045 533.823 525.104 538.926 527.715C541.344 528.952 543.884 531.769 544.483 534.478C544.922 536.467 544.333 538.445 543.362 540.191C542.244 542.205 540.853 543.629 538.604 544.262C530.798 546.459 504.286 546.587 497.449 542.792C495.475 541.697 493.74 540.046 493.184 537.793C492.607 535.458 493.369 532.684 494.753 530.759C497.491 526.949 502.801 526.49 507.055 525.852C504.301 521.976 501.46 518.279 498.267 514.753C473.678 519.278 442.243 516.871 418.087 510.195C415.496 516.381 412.193 522.386 408.522 527.992Q407.649 529.329 406.743 530.644Q405.837 531.959 404.899 533.251Q403.962 534.544 402.993 535.813Q402.024 537.083 401.025 538.328Q400.025 539.573 398.995 540.794Q397.966 542.014 396.907 543.209Q395.847 544.404 394.76 545.573Q393.672 546.742 392.555 547.884Q391.439 549.026 390.296 550.14Q389.152 551.255 387.982 552.341Q386.811 553.427 385.614 554.485Q384.418 555.542 383.196 556.57Q381.974 557.597 380.727 558.595Q379.48 559.593 378.209 560.56Q376.938 561.527 375.645 562.462Q374.351 563.398 373.034 564.302Q371.718 565.206 370.38 566.077Q369.042 566.948 367.683 567.787Q366.324 568.626 364.945 569.431Q363.566 570.236 362.168 571.007Q360.769 571.778 359.353 572.515Q357.936 573.252 356.502 573.954Q355.068 574.656 353.617 575.323Q352.166 575.99 350.699 576.622Q349.232 577.253 347.751 577.848Q346.269 578.444 344.773 579.003Q343.278 579.562 341.769 580.084Q340.26 580.607 338.738 581.092Q337.217 581.578 335.685 582.026Q334.152 582.474 332.609 582.885Q331.066 583.295 329.513 583.668Q327.96 584.041 326.399 584.376C288.039 592.289 254.103 583.977 221.669 562.674C220.475 561.115 217.546 559.199 215.756 558.36L210.673 560.674C205.594 573.227 200.901 587.169 197.446 600.278Q189.274 604.078 180.914 607.443C177.143 608.952 172.845 610.204 169.346 612.252L170.281 612.276C174.956 612.361 179.622 611.174 184.335 611.289C201.593 611.71 221.248 616.703 235.826 626.177C242.26 630.359 247.986 635.678 253.366 641.124C284.437 672.574 308.277 710.043 331.875 747.17C349.307 774.594 366.462 801.999 381.928 830.599C424.282 834.577 457.776 853.46 495.261 871.819C527.258 846.989 567.552 818.957 610.174 824.277C618.937 825.371 627.274 827.472 635.376 830.994C665.222 783.516 728.68 682.099 785.569 669.429C802.299 665.703 818.419 670.135 832.634 679.212C843.957 686.442 853.311 695.772 861.184 706.604Q865.415 699.166 869.358 691.571C914.885 603.283 925.593 488.334 895.202 393.59Q893.988 389.78 892.699 385.994Q891.411 382.208 890.05 378.448Q888.689 374.688 887.255 370.955Q885.821 367.222 884.315 363.518Q882.809 359.813 881.232 356.138Q879.654 352.464 878.006 348.82Q876.357 345.177 874.639 341.566Q872.92 337.956 871.131 334.379Q869.343 330.802 867.485 327.261Q865.628 323.719 863.702 320.215Q861.776 316.71 859.783 313.243Q857.79 309.777 855.729 306.349Q853.669 302.922 851.543 299.535Q849.417 296.148 847.225 292.803Q845.034 289.458 842.778 286.157Q840.522 282.855 838.202 279.597Q835.883 276.34 833.5 273.128Q831.118 269.916 828.674 266.751Q826.23 263.586 823.725 260.469Q821.22 257.352 818.655 254.284Q816.09 251.216 813.466 248.198Q810.842 245.18 808.16 242.214Q805.478 239.248 802.739 236.334Q800 233.421 797.205 230.561Q794.41 227.7 791.56 224.895Q788.711 222.09 785.807 219.34Q782.903 216.591 779.947 213.898Q776.99 211.205 773.982 208.571Q770.974 205.936 767.915 203.36Q764.857 200.784 761.749 198.267Q758.641 195.751 755.484 193.295Q752.328 190.84 749.125 188.446C733.629 176.869 717.233 165.891 700.014 157.033ZM129.769 631.324C142.955 624.577 155.128 616.679 169.346 612.252C172.845 610.204 177.143 608.952 180.914 607.443Q189.274 604.078 197.446 600.278C200.901 587.169 205.594 573.227 210.673 560.674L215.756 558.36C209.735 552.716 203.66 547.201 198.366 540.849Q196.645 538.743 195.011 536.568Q193.378 534.393 191.835 532.153Q190.292 529.912 188.842 527.611Q187.393 525.309 186.039 522.95Q184.685 520.591 183.429 518.178Q182.173 515.765 181.017 513.303Q179.861 510.841 178.808 508.333Q177.754 505.826 176.804 503.277Q175.853 500.728 175.009 498.142Q174.164 495.557 173.426 492.939Q172.688 490.321 172.059 487.674Q171.429 485.028 170.908 482.359Q170.387 479.689 169.977 477Q169.566 474.311 169.266 471.607Q168.966 468.904 168.777 466.19Q168.588 463.477 168.511 460.758C168.325 455.116 168.329 449.383 168.8 443.759C169.219 438.755 170.091 433.63 170.024 428.613C167.814 427.891 164.872 427.373 163.745 425.117C161.413 420.449 168.627 403.84 170.794 398.914C183.037 371.087 203.232 348.48 228.869 332.331C222.702 325.266 218.156 317.474 213.709 309.26C207.22 309.311 200.669 309.555 194.186 309.38C194.09 305.998 193.317 298.73 195.438 295.927C196.218 294.895 204.208 294.823 205.706 294.798C229.613 294.404 253.654 295.338 277.568 295.471L313.5 295.516C327.093 295.514 341.957 294.765 355.201 298.235C371.968 302.629 388.198 313.294 401.639 324.081C404.325 321.672 407.025 319.294 409.518 316.682C403.806 296.161 395.671 268.611 386.963 249.336C372.002 251.527 362.63 245.91 350.817 237.143C346.602 234.015 341.225 229.498 340.38 224.042C339.768 220.087 340.772 216.364 343.207 213.209C347.039 208.24 353.162 206.386 359.167 205.804C366.918 205.052 374.58 206.399 382.227 207.499C395.724 209.441 408.226 210.987 421.853 208.972C427.464 208.143 436.6 205.716 441.386 209.836C443.578 211.723 446.305 215.866 446.635 218.789C446.811 220.356 446.161 221.803 445.076 222.905C444.04 223.957 442.686 224.702 441.373 225.347C437.519 227.24 433.26 228.421 429.339 230.245C420.689 234.268 412.075 238.973 403.2 242.433C407.667 253.642 410.951 265.565 414.791 277.026Q428.614 318.177 442.019 359.466C447.857 377.5 453.155 395.845 460.081 413.494L460.572 413.307C471.183 409.331 481.824 406.641 492.166 401.778C534.979 381.647 566.786 345.469 586.321 302.974C593.264 287.871 599.41 272.359 605.814 257.02C608.963 249.479 611.851 241.48 615.736 234.298C612.514 226.407 602.007 206.235 605.07 198.63C608.264 190.702 628.821 169.883 627.273 163.589C623.274 160.373 612.892 160.888 607.76 160.627C604.104 164.118 599.538 168.993 594.112 169.021C591.076 169.037 588.352 166.658 585.53 166.922C577.363 167.684 556.181 175.502 550.233 168.67C548.068 166.182 547.395 162.222 547.81 159.03C548.053 157.156 548.751 155.07 550.327 153.893C555.617 149.947 581.417 147.646 589.271 145.987C591.669 143.507 593.278 141.663 596.986 141.635C600.625 141.608 603.958 144.024 606.368 146.543Q607.064 147.277 607.737 148.033C626.961 147.545 645.436 144.421 660.91 159.112C675.574 173.035 683.913 196.711 684.299 216.621C684.708 237.75 676.058 254.255 661.57 269.114Q657.109 273.699 652.458 278.09Q662.051 300.36 670.427 323.115C676.159 321.401 681.905 319.731 687.768 318.519C692.583 317.524 698.726 317.185 703.217 315.366C703.168 315.207 703.11 315.049 703.071 314.887C701.97 310.403 703.059 302.757 703.104 297.918C703.2 287.53 702.965 277.041 703.48 266.667C704.367 248.817 706.27 231.001 706.302 213.111C706.323 201.688 706.293 189.559 704.808 178.229C704.153 173.233 701.287 165.924 701.405 161.648C701.449 160.049 700.948 158.735 699.816 157.597C694.072 151.819 678.547 145.547 670.745 142.199Q665.751 140.007 660.698 137.953Q655.646 135.898 650.539 133.982Q645.433 132.066 640.276 130.291Q635.119 128.515 629.916 126.88Q624.712 125.246 619.466 123.754Q614.22 122.262 608.935 120.914Q603.65 119.566 598.331 118.363Q593.011 117.16 587.66 116.102Q582.31 115.045 576.932 114.134Q571.555 113.222 566.154 112.458Q560.754 111.694 555.335 111.078Q549.916 110.462 544.482 109.993Q539.048 109.525 533.603 109.205Q528.159 108.886 522.707 108.715Q517.256 108.544 511.802 108.521Q506.348 108.499 500.895 108.626Q495.93 108.8 490.97 109.096Q486.011 109.393 481.06 109.812Q476.109 110.231 471.171 110.772Q466.232 111.313 461.308 111.977Q456.384 112.64 451.478 113.424Q446.572 114.209 441.687 115.115Q436.802 116.02 431.941 117.046Q427.08 118.072 422.245 119.218Q417.411 120.364 412.606 121.629Q407.802 122.894 403.03 124.278Q398.258 125.661 393.522 127.162Q388.785 128.663 384.088 130.28Q379.39 131.898 374.734 133.631Q370.078 135.364 365.466 137.211Q360.854 139.059 356.289 141.02Q351.724 142.981 347.209 145.054Q342.693 147.128 338.231 149.312Q333.769 151.496 329.361 153.79Q324.954 156.084 320.605 158.486Q316.256 160.888 311.968 163.396Q307.679 165.905 303.454 168.519Q299.229 171.133 295.07 173.851Q290.911 176.568 286.82 179.388Q282.729 182.208 278.709 185.127Q274.69 188.047 270.743 191.066Q266.797 194.084 262.926 197.199Q259.055 200.314 255.263 203.523Q251.47 206.733 247.758 210.035Q244.046 213.337 240.417 216.73Q236.788 220.123 233.244 223.605Q229.699 227.087 226.242 230.655Q222.785 234.223 219.417 237.876Q216.525 240.945 213.698 244.074Q210.871 247.204 208.11 250.392Q205.35 253.581 202.658 256.827Q199.966 260.073 197.343 263.375Q194.72 266.677 192.167 270.034Q189.615 273.391 187.133 276.801Q184.652 280.211 182.244 283.673Q179.835 287.135 177.501 290.647Q175.166 294.159 172.906 297.719Q170.646 301.28 168.461 304.887Q166.277 308.495 164.169 312.147Q162.062 315.8 160.032 319.497Q158.002 323.193 156.051 326.932Q154.099 330.671 152.227 334.45Q150.356 338.229 148.564 342.046Q146.772 345.864 145.062 349.719Q143.351 353.573 141.723 357.464Q140.094 361.354 138.548 365.277Q137.002 369.201 135.539 373.156Q134.076 377.111 132.697 381.097Q131.318 385.082 130.024 389.096Q128.729 393.11 127.52 397.15Q126.311 401.19 125.187 405.255Q124.064 409.319 123.026 413.407Q121.989 417.495 121.038 421.603Q120.087 425.712 119.223 429.84Q118.359 433.967 117.583 438.113Q116.807 442.258 116.118 446.418Q115.429 450.579 114.829 454.753Q114.228 458.927 113.716 463.113Q113.204 467.299 112.78 471.495Q112.357 475.691 112.022 479.895C111.091 492.304 110.37 504.965 110.787 517.405C112.088 556.234 117.612 594.341 129.769 631.324ZM679.642 354.751C689.653 387.802 700.077 405.414 717.996 434.499Q713.369 419.636 708.339 404.904C705.384 396.523 695.478 375.769 695.569 368.168L696.137 367.112L697.257 367.126C700.039 370.225 701.288 375.786 702.771 379.664C707.053 390.856 711.384 401.978 715.126 413.371C717.125 419.454 718.446 425.778 720.582 431.803C721.233 433.64 721.925 436.129 723.329 437.533L723.893 437.364C725.316 432.549 721.659 385.978 721.13 377.606C720.825 372.769 719.926 367.351 720.501 362.572C720.674 361.132 720.876 359.926 722.132 359.119C724.297 361.117 724.242 365.07 724.356 367.878Q725.315 392.061 726.802 416.218C727.2 423.008 726.892 430.209 728.238 436.866L728.419 437.798C728.457 437.984 728.499 438.169 728.539 438.354C732.959 422.389 736.595 404.65 740.122 388.359C741.761 380.789 742.873 372.623 745.334 365.303C745.855 363.753 746.286 362.574 747.69 361.691C748.34 362.121 748.72 362.142 748.901 362.972C749.807 367.133 733.704 430.541 731.183 439.997L731.653 439.4C739.395 429.46 766.1 371.908 772.007 370.123C772.469 370.667 772.878 370.827 772.768 371.6C772.35 374.552 767.68 381.382 766.093 384.349L735.457 440.517C744.413 432.838 786.062 383.643 792.457 383.291C792.618 385.19 790.995 386.793 789.821 388.184C783.944 395.145 777.08 401.252 770.887 407.926C759.971 419.689 749.493 431.949 738.754 443.886C756.572 433.72 773.303 421.724 790.671 410.829C794.546 408.398 798.254 405.463 802.254 403.268C803.923 402.352 805.494 401.763 807.353 401.386L808.115 401.786C807.786 403.66 806.105 405.01 804.634 406.064C797.199 411.392 789.146 415.802 781.472 420.752C767.741 429.611 754.308 438.93 740.155 447.124C759.502 441.907 778.567 435.34 797.833 429.764C804.327 427.884 812.486 424.309 819.272 424.503L820.3 425.132L820.477 425.934C817.424 429.503 751.357 446.597 740.746 451.056C753.747 450.48 816.536 448.241 824.737 451.842L824.811 452.909C823.717 454.125 822.229 454.251 820.68 454.329C815.325 454.599 809.837 454 804.464 453.967C792.827 453.896 781.185 454.076 769.549 453.923C760.661 453.807 751.988 453.243 743.18 454.845C743.384 454.947 743.586 455.052 743.79 455.151C752.622 459.43 764.137 460.92 773.737 463.236C783.273 465.537 792.633 468.472 802.067 471.152C807.49 472.693 813.531 473.743 818.674 476.046C820.085 476.678 821.032 477.447 822.027 478.633L821.819 479.213C819.698 479.526 817.677 479.176 815.601 478.723C800.912 475.512 786.37 470.596 771.898 466.506C762.058 463.725 751.911 461.747 742.157 458.757C745.669 461.53 749.195 464.207 753.012 466.557C765.004 473.944 777.357 480.816 789.552 487.864C796.768 492.034 804.612 496.295 811.282 501.287C812.26 502.019 812.808 502.505 813.039 503.73C811.833 504.414 811.222 504.295 809.896 503.891C804.057 502.113 796.404 496.435 791.065 493.246L764.23 477.22C756.026 472.218 747.926 466.992 739.395 462.556Q746.363 470.996 754.076 478.761C761.075 485.871 794.844 517.456 797.558 524.584L797.105 525.172C795.5 525.131 794.445 524.282 793.253 523.292C786.595 517.764 780.681 510.64 774.646 504.41C767.257 496.782 759.538 489.468 752.227 481.766C746.88 476.133 741.792 470.467 735.979 465.293C744.264 483.103 756.763 501.698 766.714 519.048C769.548 523.99 772.926 529.079 775.256 534.248C776.09 536.098 776.805 538.23 776.447 540.273L775.825 540.468L774.816 539.651L774.936 539.886C770.047 534.682 767.042 527.671 763.606 521.477L745.04 488.604C741.472 482.237 738.517 475.461 734.011 469.68C734 469.824 733.985 469.968 733.977 470.113C733.631 476.663 737.94 488.491 739.807 495.157C741.614 501.607 754.406 545.592 753.13 549.099L752.275 549.558C750.484 548.588 750.078 547.271 749.501 545.378C746.754 536.365 732.687 474.068 729.314 471.768C728.685 470.319 728.684 470.353 727.266 469.646L725.999 470.009L725.637 470.559C722.839 476.726 721.406 483.831 719.63 490.349Q714.618 508.545 710.005 526.847C708.423 533.15 707.284 540.542 704.396 546.355C703.747 547.659 703.1 548.787 701.695 549.281C700.775 547.772 701.035 546.169 701.358 544.473C702.649 537.699 705.368 530.918 707.215 524.248C712.334 505.766 717.823 487.236 722.232 468.577C718.816 473.552 715.95 478.919 712.801 484.067C704.041 498.384 695.596 512.861 687.021 527.287C685.291 530.197 682.273 536.703 678.962 537.545L678.093 537.017C677.494 530.977 713.653 480.251 718.359 466.812C718.224 466.915 718.088 467.015 717.955 467.12C712.769 471.193 708.654 476.839 704.023 481.541C697.969 487.69 665.235 519.986 660.137 521.364C659.745 520.751 659.467 520.639 659.637 519.857C660.724 514.843 707.73 476.125 715.404 463.459C704.28 469.216 652.468 501.382 645.992 500.414L645.569 499.58C646.083 498.157 647.059 497.49 648.287 496.698C652.717 493.837 657.898 491.819 662.559 489.303Q679.952 479.962 697.036 470.067C703.099 466.515 709.346 463.057 714.943 458.796C702.964 461.307 691.197 464.596 679.391 467.804C665.486 471.584 649.471 477.114 634.979 476.416C641.703 473.136 648.976 471.366 656.194 469.531C673.611 465.103 697.244 461.327 713.265 455.019L712.484 454.925C706.21 454.199 699.768 454.274 693.451 454.095C680.471 453.726 667.472 453.58 654.507 452.887C648.294 452.555 641.583 452.731 635.685 450.614L635.165 449.947C636.937 448.704 639.915 448.612 642.068 448.538C647.094 448.364 652.211 448.895 657.236 449.148C672.045 449.896 695.757 451.969 709.847 450.407L709.22 450.058C698.037 443.972 643.247 431.229 639.749 425.269C641.304 424.15 642.734 424.17 644.547 424.494C650.92 425.636 657.305 428.858 663.482 430.884L706.079 444.407C703.256 441.012 700.432 438.141 696.924 435.454C689.698 429.921 651.791 407.308 649.957 402.498C650.395 401.433 650.193 401.41 651.282 400.833C660.018 403.985 689.379 425.172 698.068 431.78C689.452 421.476 685.013 409.134 677.306 398.797C674.371 394.861 665.288 387.611 664.935 383.272L665.52 382.456C668.222 382.633 670.075 384.578 671.752 386.505Q673.127 388.113 674.447 389.766C670.45 381.351 667.48 372.391 664.936 363.435C639.469 383.555 624.241 408.326 620.498 440.889C616.88 472.371 624.716 503.084 644.709 527.94C662.892 550.545 688.302 565.103 717.247 568.252Q718.571 568.402 719.898 568.518Q721.225 568.635 722.554 568.718Q723.884 568.801 725.215 568.852Q726.546 568.902 727.878 568.919Q729.21 568.936 730.543 568.92Q731.875 568.904 733.206 568.854Q734.537 568.805 735.867 568.723Q737.196 568.64 738.524 568.525Q739.851 568.409 741.175 568.26Q742.498 568.112 743.818 567.93Q745.138 567.748 746.453 567.534Q747.768 567.319 749.077 567.072Q750.386 566.825 751.688 566.545Q752.991 566.265 754.286 565.953Q755.581 565.641 756.868 565.297Q758.155 564.953 759.433 564.576Q760.71 564.2 761.979 563.792Q763.247 563.384 764.504 562.945Q765.762 562.505 767.008 562.034Q768.254 561.564 769.489 561.062Q770.723 560.56 771.944 560.028Q773.165 559.496 774.373 558.933Q775.58 558.371 776.774 557.778Q777.967 557.186 779.145 556.564Q780.323 555.942 781.485 555.291Q782.647 554.64 783.793 553.96Q784.938 553.28 786.067 552.571Q787.195 551.863 788.305 551.127Q789.416 550.391 790.507 549.627Q791.599 548.863 792.671 548.073Q793.743 547.282 794.795 546.465Q795.847 545.648 796.879 544.805Q797.977 543.915 799.052 542.998Q800.128 542.081 801.18 541.137Q802.233 540.194 803.261 539.224Q804.29 538.255 805.294 537.26Q806.298 536.266 807.277 535.246Q808.256 534.227 809.21 533.184Q810.163 532.14 811.091 531.074Q812.018 530.007 812.919 528.918Q813.819 527.828 814.692 526.717Q815.565 525.605 816.41 524.472Q817.256 523.34 818.072 522.186Q818.889 521.033 819.677 519.859Q820.465 518.686 821.223 517.493Q821.982 516.3 822.711 515.089Q823.439 513.878 824.137 512.649Q824.836 511.42 825.503 510.174Q826.171 508.929 826.807 507.667Q827.443 506.404 828.048 505.127Q828.653 503.849 829.226 502.557Q829.798 501.265 830.339 499.959Q830.88 498.653 831.387 497.334Q831.895 496.015 832.37 494.684Q832.845 493.353 833.287 492.01Q833.729 490.668 834.137 489.314Q834.545 487.961 834.919 486.598Q835.294 485.235 835.634 483.864Q835.975 482.492 836.281 481.112Q836.587 479.732 836.859 478.345Q837.131 476.958 837.368 475.565Q837.605 474.172 837.808 472.773Q838.011 471.374 838.178 469.971Q838.346 468.567 838.479 467.16Q838.627 465.781 838.741 464.399Q838.854 463.017 838.933 461.632Q839.013 460.247 839.057 458.861Q839.102 457.475 839.112 456.088Q839.122 454.702 839.098 453.315Q839.074 451.928 839.015 450.543Q838.956 449.157 838.863 447.773Q838.77 446.39 838.642 445.009Q838.515 443.628 838.353 442.25Q838.191 440.873 837.995 439.5Q837.798 438.127 837.568 436.759Q837.338 435.392 837.074 434.03Q836.809 432.669 836.511 431.314Q836.214 429.96 835.882 428.613Q835.55 427.267 835.185 425.929Q834.82 424.591 834.422 423.262Q834.024 421.934 833.593 420.616Q833.162 419.297 832.698 417.99Q832.234 416.683 831.738 415.388Q831.242 414.093 830.714 412.811Q830.186 411.529 829.626 410.26Q829.066 408.991 828.474 407.737Q827.883 406.482 827.261 405.243Q826.638 404.003 825.985 402.78Q825.332 401.556 824.649 400.349Q823.966 399.142 823.253 397.953Q822.54 396.763 821.797 395.592Q821.055 394.421 820.284 393.268Q819.512 392.115 818.712 390.982Q817.913 389.849 817.085 388.737Q816.257 387.624 815.402 386.532Q814.547 385.44 813.665 384.37Q812.761 383.292 811.831 382.237Q810.901 381.182 809.946 380.15Q808.99 379.118 808.009 378.11Q807.028 377.102 806.023 376.119Q805.017 375.135 803.988 374.177Q802.958 373.219 801.906 372.286Q800.853 371.353 799.778 370.447Q798.702 369.54 797.605 368.661Q796.507 367.781 795.388 366.929Q794.27 366.076 793.13 365.252Q791.991 364.427 790.831 363.631Q789.672 362.835 788.493 362.068Q787.314 361.301 786.117 360.563Q784.92 359.825 783.704 359.116Q782.489 358.408 781.257 357.73Q780.025 357.052 778.776 356.405Q777.528 355.757 776.263 355.141Q774.999 354.524 773.72 353.939Q772.441 353.354 771.148 352.801Q769.855 352.248 768.549 351.726Q767.242 351.205 765.924 350.716Q764.605 350.227 763.275 349.771Q761.944 349.315 760.603 348.892Q759.262 348.468 757.91 348.078Q756.559 347.688 755.198 347.331Q753.838 346.975 752.469 346.652Q751.1 346.329 749.724 346.04Q748.347 345.751 746.964 345.496Q745.581 345.241 744.192 345.02Q742.803 344.799 741.409 344.612Q740.015 344.426 738.617 344.274Q737.219 344.122 735.817 344.004C715.846 342.213 697.875 347.16 679.642 354.751ZM293.722 342.204Q286.445 342.643 279.242 343.765Q272.038 344.887 264.972 346.681C266.199 348.682 268.101 351.928 267.491 354.384C267.186 355.617 266.369 356.396 265.221 356.852C261.169 358.46 254.883 355.586 251.223 353.724C251.065 353.644 250.911 353.558 250.755 353.475C243.035 358.117 235.54 362.822 228.615 368.632C210.602 383.748 197.066 405.714 191.31 428.492Q190.963 429.873 190.65 431.261Q190.337 432.65 190.059 434.046Q189.78 435.442 189.536 436.844Q189.292 438.247 189.083 439.655Q188.873 441.063 188.699 442.475Q188.524 443.888 188.384 445.305Q188.244 446.721 188.139 448.141Q188.034 449.561 187.964 450.982Q187.894 452.404 187.859 453.827Q187.824 455.25 187.824 456.674Q187.825 458.097 187.86 459.52Q187.895 460.943 187.965 462.365Q188.035 463.787 188.14 465.206Q188.245 466.626 188.386 468.043Q188.526 469.459 188.701 470.872Q188.875 472.285 189.085 473.692Q189.295 475.1 189.539 476.503Q189.783 477.905 190.062 479.301Q190.341 480.697 190.654 482.086Q190.967 483.474 191.314 484.855Q191.661 486.235 192.042 487.607Q192.423 488.979 192.837 490.34Q193.252 491.702 193.7 493.053Q194.148 494.404 194.629 495.744Q195.11 497.084 195.624 498.411Q196.138 499.739 196.685 501.053Q197.231 502.367 197.81 503.668Q198.389 504.969 198.999 506.254Q199.61 507.54 200.252 508.811Q200.894 510.081 201.567 511.336Q202.24 512.59 202.944 513.827Q203.648 515.064 204.382 516.284Q205.078 517.427 205.802 518.553Q206.526 519.679 207.278 520.787Q208.03 521.895 208.808 522.983Q209.587 524.072 210.393 525.141Q211.198 526.21 212.03 527.259Q212.862 528.308 213.719 529.336Q214.576 530.365 215.459 531.371Q216.341 532.378 217.248 533.362Q218.155 534.347 219.086 535.308Q220.018 536.27 220.972 537.209Q221.927 538.147 222.904 539.062Q223.882 539.976 224.882 540.866Q225.881 541.757 226.903 542.622Q227.924 543.487 228.967 544.327Q230.009 545.166 231.072 545.98Q232.135 546.794 233.218 547.581Q234.301 548.368 235.403 549.128Q236.505 549.888 237.625 550.621Q238.745 551.354 239.883 552.058Q241.022 552.763 242.177 553.439Q243.332 554.116 244.503 554.764Q245.675 555.411 246.862 556.03Q248.049 556.648 249.251 557.237Q250.453 557.826 251.67 558.386Q252.886 558.945 254.116 559.474Q255.345 560.003 256.588 560.501Q257.83 560.999 259.085 561.467Q260.339 561.934 261.604 562.371Q262.87 562.807 264.146 563.212Q265.422 563.617 266.707 563.99Q267.993 564.364 269.287 564.705Q270.582 565.047 271.884 565.356Q273.219 565.678 274.562 565.967Q275.905 566.256 277.254 566.512Q278.603 566.768 279.959 566.991Q281.314 567.214 282.674 567.404Q284.035 567.594 285.399 567.75Q286.764 567.906 288.132 568.029Q289.5 568.151 290.87 568.24Q292.241 568.33 293.613 568.385Q294.985 568.44 296.359 568.462Q297.732 568.484 299.105 568.472Q300.479 568.46 301.852 568.415Q303.224 568.369 304.596 568.29Q305.967 568.211 307.336 568.098Q308.704 567.985 310.07 567.838Q311.436 567.692 312.797 567.512Q314.159 567.332 315.516 567.119Q316.873 566.906 318.224 566.659Q319.575 566.413 320.92 566.133Q322.264 565.854 323.602 565.542Q324.939 565.229 326.269 564.884Q327.598 564.539 328.919 564.161Q330.239 563.784 331.55 563.374Q332.861 562.964 334.161 562.522Q335.462 562.08 336.751 561.606Q338.04 561.133 339.318 560.628Q340.595 560.122 341.859 559.586Q343.124 559.05 344.374 558.483Q345.625 557.915 346.862 557.318Q348.099 556.72 349.32 556.092Q350.542 555.464 351.747 554.807Q352.953 554.149 354.143 553.462Q355.332 552.775 356.504 552.059C374.384 541.232 389.495 525.357 398.224 506.26C392.753 504.85 383.235 501.524 377.951 501.446C376.519 501.425 375.213 502.108 373.962 502.725C360.406 499.145 347.902 492.59 334.519 488.538L334.066 488.404C340.833 495.392 361.842 515.296 365.254 522.653L365.18 523.735C362.19 523.72 359.383 520.332 357.389 518.312C348.29 509.097 335.465 490.822 324.706 485.32C322.029 483.95 318.79 483.489 315.863 482.884C323.465 496.336 331.399 509.68 338.577 523.358C340.457 526.94 342.786 530.357 344.282 534.122C345.102 536.185 345.553 537.85 345.393 540.07L344.846 540.51C339.999 537.471 322.618 502.413 318.864 495.369C316.82 491.533 314.812 486.486 311.981 483.2C310.835 481.87 309.555 480.513 307.714 480.844C306.663 484.476 317.435 523.622 319.464 531.037C320.696 535.539 322.803 540.677 323.413 545.256C323.598 546.649 323.677 548.615 322.667 549.653C315.546 545.007 309.056 490.808 301.701 478.883C301.406 478.405 301.117 477.934 300.806 477.465C299.804 484.935 299.349 492.39 299.102 499.918C298.843 507.825 299.711 548.717 297.376 552.474L296.693 552.222C291.56 540.602 299.119 495.521 295.578 477.592C290.398 489.159 276.158 545.11 272.699 548.491L271.46 548.535C270.625 547.591 270.553 547.105 270.688 545.879C271.145 541.73 275.347 529.505 276.816 524.821C281.929 508.518 287.658 492.036 291.317 475.328C279.927 487.45 269.091 508.607 259.963 523.236C257.63 526.974 255.52 531.375 252.762 534.787C251.658 536.152 250.606 537.112 248.992 537.798L248.162 537.471C247.362 531.184 287.244 477.354 285.983 472.761C284.698 472.477 284.222 472.506 283.115 473.281C273.739 479.843 235.093 522.25 228.421 522.11C228.265 520.36 229.748 518.769 230.838 517.484C234.839 512.762 240.133 508.701 244.692 504.49L271.737 479.281C274.878 476.365 279.926 472.892 282.29 469.44C282.121 468.307 282.229 468.27 281.454 467.319C271.996 470.256 262.737 476.938 254.018 481.741Q236.852 491.076 219.425 499.915C217.472 500.804 215.829 501.581 213.639 501.7L213.074 501.21C214.449 498.672 217.161 496.82 219.585 495.316C223.486 492.896 227.986 491.151 232.092 489.067C245.961 482.027 268.57 471.427 280.308 462.083C270.877 464.243 210.612 479.14 205.53 476.926C205.383 476.066 205.222 476.234 205.76 475.599C207.926 473.044 254.66 464.397 262.205 462.83C266.261 461.989 272.9 461.502 276.419 459.377C277.674 458.619 278.032 458.145 278.086 456.717C275.141 455.046 264.485 455.939 260.724 455.87C251.376 455.697 242.002 454.974 232.646 454.694C224.981 454.465 216.154 455.04 208.657 453.635C207.109 453.345 206.12 452.952 205.135 451.675C205.829 450.631 206.048 450.705 207.241 450.485C217.978 448.504 275.025 454.963 279.17 451.273L278.976 450.646C276.492 449.45 273.653 449.155 271.022 448.329Q260.459 444.905 249.755 441.954C241.891 439.785 214.138 434.019 208.663 429.397L208.545 428.519C210.895 427.094 212.694 427.754 215.233 428.378Q236.147 433.535 256.645 440.154C262.805 442.105 269.946 445.494 276.208 446.534C277.75 446.79 279.283 446.6 280.639 445.831L280.866 444.959C276.256 439.275 243.991 422.435 235.345 417.877C230.651 415.402 223.87 412.656 220.082 409.05C219.122 408.136 219.018 407.64 219.097 406.415C220.185 405.827 220.813 406 221.958 406.363C226.806 407.9 231.67 411.309 236.137 413.82C244.606 418.582 253.343 423.074 261.677 428.042C267.765 431.67 273.881 436.14 280.221 439.254C281.181 439.725 281.953 440.106 283.033 439.858L283.984 438.805C283.557 433.845 236.203 393.08 235.256 386.822L235.849 386.202C242.712 388.194 279.309 427.889 287.083 435.53C279.638 424.832 273.641 412.814 267.074 401.535C263.08 394.675 258.038 387.638 254.436 380.704C253.058 378.052 251.747 375.197 251.458 372.201L251.92 371.801C260.248 377.006 284.189 425.648 291.652 436.935L291.534 436.148C289.717 424.404 269.575 367.888 271.234 362.617L272.053 362.18C274.4 363.382 274.945 365.926 275.71 368.294C279.398 379.711 290.86 426.586 295.776 433.397L296.532 433.433C299.894 426.057 290.498 363.211 296.281 359.416C297.707 361.141 298.067 363.654 298.312 365.82C299.496 376.301 297.563 429.175 301.642 433.02L303.18 433.036C306.64 429.505 307.095 419.625 308.132 414.768C310.281 404.708 312.727 394.706 314.927 384.656C316.265 378.543 317.1 371.921 319.114 366.003C319.6 364.575 320.109 363 321.514 362.258C322.182 362.552 322.467 362.453 322.683 363.239C323.716 366.997 310.217 419.054 308.434 427.678C311.889 425.258 315.253 422.57 317.893 419.25C325.526 409.649 338.192 376.259 345.088 371.724L345.919 372.462C345.111 378.309 331.43 403.806 327.916 409.784C341.32 395.723 354.099 381.472 366.537 366.555C346.789 351.256 319.133 339.904 293.722 342.204ZM377.303 376.33Q354.269 399.47 332.207 423.538C343.255 417.166 353.53 409.482 364.359 402.749C367.287 400.929 370.467 398.539 373.584 397.133C375.097 396.45 376.385 396.26 378.017 396.431L378.799 397.119C378.368 398.507 377.729 399.153 376.579 400.05C372.594 403.158 367.71 405.578 363.386 408.211C356.252 412.555 349.265 417.162 342.21 421.633C336.999 424.936 331.334 428.072 326.57 431.985C323.567 434.452 321.137 437.074 319.037 440.363C326.797 440.669 333.827 441.487 341.128 438.29C347.932 435.097 380.877 418.407 385.168 418.692L386.13 419.393C386.173 420.508 386.374 420.137 385.69 420.863C382.224 424.54 351.34 438.332 344.657 441.036C355.864 440.857 367.095 440.812 378.295 440.408C383.108 440.235 388.443 439.237 393.188 439.521C394.093 439.576 394.584 440.018 395.32 440.467C398.692 442.529 404.764 441.526 408.698 441.394C404.945 421.826 399.308 402.482 387.294 386.248C384.898 383.011 381.853 379.231 378.477 376.991C377.717 376.487 377.922 376.601 377.303 376.33ZM412.742 336.846Q403.018 348.543 392.402 359.438C415.407 384.275 424.506 409.047 429.591 442.06Q439.785 441.608 449.988 441.52C444.932 424.615 439.039 407.934 433.649 391.13C428.74 375.826 424.467 359.896 417.904 345.192C416.59 342.248 414.983 339.19 412.742 336.846ZM651.665 157.332C651.673 157.527 651.678 157.722 651.689 157.916C652.098 165.534 654.554 173.079 655.377 180.686C657.928 204.264 657.586 244.848 647.716 266.047L650.406 273.089Q656.464 268.396 661.812 262.907C674.642 248.319 681.159 232.87 679.811 213.206C678.545 194.744 670.749 172.704 656.474 160.25C654.959 158.928 653.526 158.068 651.665 157.332ZM648.23 164.373C641.721 177.899 632.514 190.917 622.939 202.453Q632.238 224.861 640.434 247.696C642.215 251.767 643.946 255.868 645.805 259.903Q647.081 254.984 648.127 250.01Q649.172 245.037 649.985 240.02Q650.799 235.003 651.378 229.954Q651.957 224.905 652.3 219.835Q652.644 214.764 652.751 209.683Q652.859 204.602 652.73 199.521Q652.601 194.441 652.236 189.372Q651.87 184.303 651.27 179.256C650.783 175.202 650.402 168.814 648.718 165.188C648.585 164.901 648.393 164.644 648.23 164.373ZM314.66 466.927C318.614 471.142 322.668 475.111 327.574 478.22C346.483 490.2 377.92 496.15 399.79 501.926L402.016 494.711C403.129 490.376 404.371 486.038 405.354 481.674C397.799 479.746 389.086 477.817 381.285 477.668C380.317 478.822 381.491 479.872 380.406 481.21C372.885 481.484 347.026 473.779 337.873 471.694C330.197 469.946 322.272 468.861 314.66 466.927ZM537.401 391.511C511.295 411.81 497.215 420.393 465.015 430.429C465.795 433.254 466.587 438.862 469.258 440.473L471.117 440.288C483.396 438.738 493.32 439.106 504.421 445.019Q514.763 428.231 525.369 411.609C529.495 405.136 534.044 398.707 537.731 391.993L537.401 391.511ZM231.218 309.569C234.565 314.86 237.916 320.107 241.613 325.164C269.387 309.906 306.841 308.205 336.983 316.879C353.515 321.636 367.919 329.317 381.499 339.827L385.733 343.694C387.774 341.135 389.756 338.402 392.067 336.089C378.481 320.547 363.484 313.407 342.968 312.021C324.975 310.805 306.713 310.658 288.678 310.336C269.511 309.993 250.399 309.458 231.218 309.569ZM322.771 446.172C319.237 446.6 316.148 447.328 312.817 448.64C342.894 453.069 373.314 455.889 403.307 460.858C405.067 461.114 406.836 461.339 408.583 461.671C409.049 456.696 409.078 451.732 409.13 446.741C392.579 446.043 376.022 446.495 359.467 446.263C347.669 446.098 334.431 444.55 322.771 446.172ZM426.896 483.852C424.736 491.387 422.61 498.91 419.947 506.287C433.863 508.637 447.984 511.065 462.107 511.654L468.944 512.309C458.204 506.939 450.571 500.121 446.678 488.492Q446.191 487.056 445.798 485.591C439.663 485.099 432.898 485.091 426.896 483.852ZM429.514 446.936C429.514 452.954 429.54 458.915 429.034 464.916L445.722 466.675L447.997 460.669C449.56 457.704 451.265 454.966 453.59 452.524L451.734 446.966Q440.624 446.871 429.514 446.936ZM628.74 272.331C623.075 284.14 617.063 296.073 612.218 308.237L617.006 305.074C623.53 300.648 630.059 295.609 636.883 291.701C635.123 286.894 632.024 275.653 628.74 272.331ZM431.522 222.618C418.289 226.839 388.77 238.233 376.348 237.241C367.166 236.507 358.075 232.947 349.504 229.754C351.595 230.999 353.663 232.29 355.858 233.347C367.55 239.232 377.197 245.128 390.681 240.753C400.337 237.621 423.342 228.358 431.798 223.008L431.522 222.618Z"/>
	<path fill="#FEFEFE" d="M232.544 320.552C236.012 324.833 239.422 329.112 243.29 333.044L239.669 337.106L233.356 329.473C232.707 326.427 232.357 323.679 232.544 320.552Z"/>
	<path fill="#E4B845" d="M219.386 309.412L226.323 309.286C228.135 313.172 230.391 316.848 232.544 320.552C232.357 323.679 232.707 326.427 233.356 329.473C227.11 324.241 222.948 316.592 219.386 309.412Z"/>
	<path fill="#E4B845" d="M303.386 464.389C306.921 466.042 317.129 474.786 318.747 478.155C317.628 478.779 317.084 478.415 315.874 478.187C308.412 475.972 303.507 472.63 297.463 467.745C299.502 466.785 301.441 465.528 303.386 464.389Z"/>
	<path fill="#FEFEFE" d="M638.443 295.893C639.283 296.52 638.961 296.091 639.262 297.278C636.131 303.752 614.828 316.02 607.728 319.98C607.289 319.927 607.589 319.993 606.916 319.544C610.295 312.517 631.232 300.405 638.443 295.893Z"/>
	<path fill="#E4B845" d="M243.29 333.044C250.107 339.498 256.601 345.995 262.72 353.116Q261.842 352.92 260.975 352.682Q260.107 352.443 259.252 352.163Q258.398 351.883 257.557 351.562Q256.717 351.241 255.893 350.88Q255.069 350.518 254.264 350.118Q253.459 349.717 252.674 349.277Q251.889 348.838 251.126 348.361Q250.363 347.885 249.625 347.371Q248.886 346.858 248.173 346.31Q247.459 345.762 246.774 345.179Q246.088 344.597 245.431 343.983Q244.774 343.368 244.148 342.722Q243.522 342.076 242.928 341.401Q242.333 340.726 241.773 340.023Q241.212 339.319 240.685 338.59Q240.159 337.86 239.669 337.106L243.29 333.044Z"/>
	<path fill="#E4B845" d="M480.301 468.559L485.786 468.506C489.132 470.717 491.828 473.002 493.228 476.912C494.119 479.4 494.114 482.146 492.847 484.506C491.071 487.814 487.72 489.266 484.34 490.409C482.242 490.57 480.192 490.461 478.21 489.703Q477.617 489.48 477.05 489.197Q476.484 488.914 475.949 488.574Q475.414 488.234 474.918 487.84Q474.421 487.447 473.967 487.005Q473.514 486.563 473.108 486.076Q472.703 485.589 472.349 485.064Q471.996 484.538 471.699 483.978Q471.401 483.419 471.163 482.832C470.199 480.39 470.176 477.596 471.299 475.204C473.092 471.384 476.484 469.808 480.301 468.559Z"/>
	<path fill="#1A1020" d="M476.167 473.724C478.247 474.907 477.352 476.693 478.775 478.26C482.33 478.838 487.841 474.906 491.281 473.546C488.67 476.185 485.865 478.12 482.757 480.108C480.954 480.018 478.715 480.002 477.226 481.127C477.002 483.177 478.4 484.567 478.677 486.615C477.648 486.456 477.266 486.359 476.45 485.637C474.515 483.926 474.063 480.131 474.06 477.706C474.058 475.681 474.825 475.057 476.167 473.724Z"/>
	<path fill="#E4B845" d="M714.074 318.292C719.91 317.803 730.369 316.382 735.242 320.21C736.293 321.035 736.555 321.608 736.748 322.89C733.677 327.987 714.007 326.998 707.736 328.064C701.335 329.152 695.122 330.988 688.949 332.965C684.663 334.38 680.436 336.003 676.196 337.551C674.562 333.919 673.215 330.134 671.789 326.415C685.851 322.86 699.617 319.711 714.074 318.292Z"/>
	<path fill="#E4B845" d="M481.288 457.603C486.91 457.552 492.833 459.131 497.26 462.667Q497.653 462.984 498.03 463.32Q498.407 463.656 498.766 464.011Q499.126 464.365 499.468 464.736Q499.81 465.108 500.133 465.496Q500.456 465.884 500.76 466.287Q501.064 466.691 501.347 467.109Q501.63 467.527 501.893 467.958Q502.155 468.389 502.396 468.833Q502.637 469.277 502.855 469.732Q503.074 470.187 503.27 470.653Q503.466 471.118 503.639 471.592Q503.812 472.067 503.961 472.549Q504.11 473.032 504.235 473.521Q504.36 474.01 504.461 474.505Q504.562 475 504.639 475.499Q504.715 475.998 504.767 476.5C505.589 484.36 501.868 490.591 497.143 496.401L493.014 491.685Q493.627 491.02 494.224 490.34C497.225 486.917 499.147 482.87 498.728 478.219C498.343 473.953 496.018 470.072 492.679 467.447Q492.024 466.927 491.32 466.476Q490.617 466.024 489.871 465.645Q489.126 465.266 488.346 464.964Q487.566 464.662 486.76 464.439Q485.954 464.216 485.13 464.076Q484.306 463.935 483.472 463.877Q482.637 463.82 481.802 463.846Q480.966 463.872 480.137 463.982C474.621 464.727 470.92 467.864 467.759 472.193C466.178 475.878 465.517 479.673 466.533 483.617C467.617 487.825 470.487 491.315 474.296 493.37C478.848 495.826 483.335 495.874 488.192 494.45L492.667 499.03L492.221 499.158C485.204 501.097 478.623 501.622 472.044 497.795Q471.572 497.52 471.115 497.221Q470.657 496.923 470.215 496.602Q469.772 496.281 469.347 495.939Q468.921 495.597 468.512 495.234Q468.104 494.872 467.714 494.489Q467.324 494.107 466.953 493.705Q466.582 493.304 466.232 492.885Q465.881 492.466 465.552 492.03Q465.223 491.594 464.916 491.142Q464.608 490.691 464.324 490.224Q464.039 489.758 463.778 489.278Q463.516 488.799 463.279 488.306Q463.042 487.814 462.829 487.311Q462.617 486.808 462.429 486.295Q462.242 485.782 462.08 485.26Q461.918 484.738 461.782 484.209Q461.643 483.689 461.531 483.163Q461.419 482.637 461.335 482.106Q461.25 481.574 461.193 481.039Q461.136 480.505 461.107 479.967Q461.078 479.43 461.077 478.892Q461.075 478.354 461.102 477.817Q461.128 477.28 461.183 476.745Q461.237 476.209 461.319 475.678Q461.401 475.146 461.51 474.619Q461.62 474.093 461.756 473.572Q461.893 473.052 462.056 472.539Q462.219 472.027 462.409 471.523Q462.598 471.02 462.814 470.527Q463.029 470.034 463.27 469.553Q463.51 469.072 463.776 468.604Q464.041 468.136 464.33 467.682C468.339 461.436 474.316 458.986 481.288 457.603Z"/>
	<path fill="#E4B845" d="M231.532 335.896C233.65 336.238 236.42 340.227 237.835 341.807C212.827 357.937 195.812 375.915 184.456 403.708C182.353 408.856 179.971 419.261 176.87 423.265C176.195 424.137 175.954 423.926 174.924 424.071L167.169 422.737C179.619 383.434 197.105 359.204 231.532 335.896Z"/>
	<path fill="#E4B845" d="M198.675 299.071L292.995 299.901C309.839 299.972 331.123 298.396 347.436 301.326Q351.62 302.109 355.699 303.327Q359.779 304.544 363.708 306.181C371.629 309.47 392.932 320.79 397.678 327.631C397.904 329.281 397.51 329.615 396.745 331.051C395.368 331.414 394.826 331.307 393.626 330.575C390.925 328.929 388.398 326.286 385.902 324.3C376.485 316.805 367.362 311.077 355.33 309.063C339.261 306.374 322.36 306.71 306.095 306.19Q252.294 304.404 198.467 305.05L198.675 299.071Z"/>
	<path fill="#E4B845" d="M410.371 321.927C412.303 323.955 411.839 328.438 411.89 331.081C405.485 341.029 389.652 355.957 380.943 365.116C361.546 385.516 342.119 405.852 324.018 427.426C320.113 432.081 316.16 436.728 312.607 441.66C308.802 446.943 302.714 460.173 297.555 463.289C295.607 464.464 292.51 465.141 290.275 464.588C288.285 464.096 286.658 462.662 285.623 460.93C283.383 457.182 283.581 453.399 284.535 449.299C287.939 442.922 292.469 440.983 299.029 438.85C296.302 443.173 294.132 447.577 292.217 452.315C300.028 446.614 305.604 438.439 312.433 431.666C325.443 418.765 338.653 406.146 350.814 392.421C371.216 369.397 389.925 344.918 410.371 321.927Z"/>
	<path fill="#E4B845" d="M653.825 336.859C653.971 336.896 654.123 336.917 654.265 336.97C656.497 337.807 658.181 344.092 658.977 346.217C633.723 364.898 615.344 389.773 609.486 421.112C608.777 424.901 607.951 436.31 605.809 439.026C604.23 441.028 601.458 441.175 599.114 441.609C597.297 441.229 595.827 440.872 594.588 439.477C594.276 437.845 594.276 436.494 594.497 434.844C595.521 427.211 598.514 419.169 600.976 411.875C611.948 379.382 625.926 357.703 653.825 336.859Z"/>
	<path fill="#E4B845" d="M292.081 316.288C326.78 313.256 356.719 325.309 382.969 347.21L378.51 352.255C367.325 345.667 356.17 338.841 344.135 333.902C311.961 322.509 283.758 322.545 251.846 334.611L245.556 328.339C259 320.035 276.489 317.279 292.081 316.288Z"/>
	<path fill="#E4B845" d="M312.076 453.435C325.733 454.152 339.573 456.714 353.112 458.609C383.705 462.892 414.284 467.921 445.007 471.129C445.095 474.459 445.296 477.778 444.731 481.077C433.141 480.643 421.575 478.692 410.114 477.011Q383.531 473.157 357.027 468.785C342.695 466.541 324.165 465.773 310.786 460.668L312.076 453.435Z"/>
	<path fill="#E4B845" d="M478.067 444.145C479.095 443.992 480.208 443.978 481.248 443.934C491.022 443.521 500.696 446.679 507.877 453.421C514.509 459.648 519.108 469.022 519.333 478.176C519.621 489.94 512.853 498.068 505.139 506.081L499.09 499.211C504.851 493.736 508.697 487.659 508.812 479.407C508.91 472.426 505.854 465.932 500.935 461.07C496.06 456.252 489.225 453.308 482.337 453.529C473.726 453.805 467.556 458.257 461.992 464.343Q461.568 465.012 461.16 465.691C457.614 471.629 456.187 478.442 458.003 485.218C459.836 492.059 464.347 497.585 470.512 501.002C478.825 505.61 486.759 504.67 495.485 502.052L500.307 508.306C498.412 508.85 496.458 509.267 494.524 509.647C483.968 511.722 472.74 510.435 463.734 504.238C456.348 499.156 451.614 491.536 450.031 482.741C448.462 474.021 450.221 464.858 455.4 457.608C460.847 449.983 468.976 445.728 478.067 444.145Z"/>
	<path fill="#E4B845" d="M595.253 146.94C596.53 146.93 598.04 146.81 599.249 147.271C601.378 148.08 602.357 150.574 603.368 152.446C611.533 152.88 636.686 149.931 642.233 154.155C643.35 155.005 643.958 156.189 644.146 157.568C645.463 167.219 624.194 194.104 617.908 202.722C625.759 219.968 631.68 238.114 638.71 255.712C649.587 282.942 661.255 309.838 671.065 337.488C678.499 358.441 681.61 378.472 691.753 398.723C694.687 404.58 714.486 439.428 718.803 440.859C720.045 440.535 721.017 440.336 721.982 439.425C722.56 438.879 722.772 438.621 723.475 438.265C727.987 439.681 734.458 445.066 736.811 449.147C738.322 451.768 738.935 454.841 738.082 457.783C737.39 460.17 735.533 462.403 733.271 463.453C731.267 464.384 728.949 464.277 726.945 463.393C714.255 457.795 686.91 408.866 680.785 395.562C673.328 379.363 668.604 360.904 662.263 344.072C651.602 315.775 639.59 288.083 628.741 259.881C622.05 278.608 613.196 296.738 604.427 314.574C588.289 347.399 572.087 377.109 552.73 408.195C542.304 424.938 527.895 443.432 519.051 460.316C516.22 455.296 512.65 451.132 508.291 447.394C519.095 429.64 529.988 411.969 541.973 394.978C548.311 385.786 554.548 376.565 559.323 366.441C551.98 372.187 545.173 378.607 538.059 384.633C510.696 407.815 494.139 417.04 459.321 426.927C461.05 431.91 462.694 436.866 464.097 441.953L455.298 442.018L439.284 393.369C434.277 378.095 425.935 345.425 416.062 333.689C416.681 318.602 410.171 303.117 405.678 288.894C401.263 274.918 396.824 261.103 391.572 247.416L398.939 244.073L434.564 350.295C442.135 372.944 449.244 395.72 457.089 418.282C464.728 416.305 472.385 414.238 479.81 411.549C522.066 396.245 560.341 362.35 581.639 322.876C596.971 294.46 607.115 263.672 620.85 234.525Q614.67 218.308 608.087 202.251C612.975 192.063 631.091 175.155 631.328 165.438C631.376 163.489 630.807 161.671 629.431 160.257C625.543 156.263 616.156 156.11 610.915 156.238C604.511 156.394 601.235 159.523 597.075 163.909C596.925 158.223 595.903 152.587 595.253 146.94Z"/>
	<path fill="#441F26" d="M725.999 470.009L727.266 469.646C728.684 470.353 728.685 470.319 729.314 471.768C728.27 477.511 728.84 484.181 728.876 490.044Q729.11 508.117 729.138 526.192C729.102 531.163 729.683 552.965 727.157 555.455L726.217 555.349C723.956 552.138 725.602 496.526 725.722 488.361C725.803 482.802 726.639 476.448 725.719 470.993C725.695 470.848 725.664 470.704 725.637 470.559L725.999 470.009Z"/>
	<path fill="#E4B845" d="M169.346 612.252L170.281 612.276C174.956 612.361 179.622 611.174 184.335 611.289C201.593 611.71 221.248 616.703 235.826 626.177C242.26 630.359 247.986 635.678 253.366 641.124C284.437 672.574 308.277 710.043 331.875 747.17C349.307 774.594 366.462 801.999 381.928 830.599C424.282 834.577 457.776 853.46 495.261 871.819C527.258 846.989 567.552 818.957 610.174 824.277C618.937 825.371 627.274 827.472 635.376 830.994C665.222 783.516 728.68 682.099 785.569 669.429C802.299 665.703 818.419 670.135 832.634 679.212C843.957 686.442 853.311 695.772 861.184 706.604C860.467 708.822 858.92 711.168 857.789 713.242C849.797 727.909 839.829 741.744 829.741 755.02Q827.307 758.25 824.809 761.431Q822.311 764.612 819.751 767.744Q817.191 770.875 814.57 773.955Q811.948 777.035 809.267 780.063Q806.585 783.091 803.845 786.066Q801.104 789.04 798.305 791.96Q795.506 794.88 792.65 797.744Q789.795 800.608 786.883 803.416Q783.971 806.223 781.004 808.972Q778.038 811.721 775.018 814.411Q771.997 817.102 768.925 819.732Q765.852 822.362 762.728 824.931Q759.604 827.5 756.43 830.007Q753.256 832.514 750.033 834.958Q746.81 837.401 743.54 839.781Q740.27 842.161 736.953 844.476Q733.636 846.791 730.274 849.04Q726.913 851.289 723.507 853.471Q720.102 855.653 716.654 857.768Q713.206 859.883 709.717 861.929Q706.229 863.975 702.7 865.952Q699.172 867.929 695.605 869.836Q692.038 871.743 688.434 873.58Q684.831 875.416 681.192 877.181Q677.552 878.946 673.879 880.639Q670.206 882.332 666.5 883.952Q662.794 885.572 659.056 887.119Q655.319 888.665 651.552 890.138Q647.785 891.611 643.99 893.009Q640.195 894.407 636.372 895.73Q632.55 897.053 628.703 898.3Q624.855 899.548 620.984 900.719Q616.436 902.058 611.857 903.284Q607.277 904.511 602.669 905.625Q598.061 906.739 593.427 907.739Q588.793 908.74 584.136 909.627Q579.479 910.513 574.801 911.285Q570.124 912.058 565.429 912.715Q560.734 913.372 556.024 913.914Q551.314 914.456 546.593 914.882Q541.871 915.308 537.141 915.618Q532.41 915.928 527.673 916.122Q522.936 916.316 518.196 916.394Q513.456 916.472 508.715 916.433Q503.975 916.395 499.236 916.24Q494.498 916.085 489.765 915.814Q485.032 915.543 480.307 915.157Q475.582 914.77 470.868 914.267Q466.154 913.764 461.454 913.146Q456.753 912.528 452.07 911.795Q447.386 911.061 442.721 910.213Q438.057 909.365 433.415 908.403Q428.773 907.441 424.156 906.365Q419.538 905.29 414.949 904.101Q410.36 902.912 405.801 901.612Q401.242 900.311 396.716 898.898Q392.191 897.486 387.701 895.963Q383.212 894.44 378.761 892.808Q374.31 891.175 369.901 889.434Q365.491 887.693 361.126 885.844Q356.76 883.995 352.441 882.04Q348.123 880.085 343.853 878.024Q339.584 875.963 335.366 873.798Q331.148 871.634 326.985 869.366Q323.487 867.462 320.027 865.491Q316.566 863.521 313.143 861.484Q309.721 859.447 306.338 857.346Q302.955 855.244 299.613 853.078Q296.271 850.913 292.971 848.683Q289.671 846.454 286.414 844.162Q283.157 841.87 279.945 839.516Q276.733 837.162 273.566 834.747Q270.399 832.332 267.279 829.857Q264.159 827.382 261.087 824.848Q258.015 822.314 254.991 819.722Q251.968 817.129 248.995 814.479Q246.022 811.829 243.1 809.123Q240.178 806.417 237.309 803.656Q234.439 800.894 231.623 798.078Q228.807 795.263 226.045 792.393Q223.283 789.524 220.576 786.603Q217.87 783.681 215.22 780.709Q212.569 777.736 209.976 774.713Q207.384 771.69 204.849 768.619Q202.314 765.547 199.839 762.427Q197.363 759.307 194.948 756.141Q192.533 752.974 190.178 749.762Q187.824 746.55 185.532 743.294Q183.239 740.037 181.009 736.738Q178.779 733.438 176.613 730.096Q174.447 726.755 172.345 723.372Q170.242 719.989 168.205 716.567Q166.168 713.145 164.197 709.685Q162.226 706.224 160.321 702.727Q158.417 699.229 156.579 695.696Q154.742 692.163 152.972 688.595C143.873 670.311 135.534 650.941 129.769 631.324C142.955 624.577 155.128 616.679 169.346 612.252Z"/>
	<path fill="#FEFEFE" d="M700.014 157.033C717.233 165.891 733.629 176.869 749.125 188.446Q752.328 190.84 755.484 193.295Q758.641 195.751 761.749 198.267Q764.857 200.784 767.915 203.36Q770.974 205.936 773.982 208.571Q776.99 211.205 779.947 213.898Q782.903 216.591 785.807 219.34Q788.711 222.09 791.561 224.895Q794.41 227.7 797.205 230.56Q800 233.421 802.739 236.334Q805.478 239.248 808.16 242.214Q810.842 245.18 813.466 248.198Q816.09 251.216 818.655 254.284Q821.22 257.352 823.725 260.469Q826.23 263.586 828.674 266.751Q831.118 269.916 833.5 273.128Q835.883 276.34 838.202 279.597Q840.522 282.855 842.778 286.157Q845.034 289.458 847.225 292.803Q849.417 296.148 851.543 299.535Q853.669 302.922 855.729 306.349Q857.79 309.777 859.783 313.243Q861.776 316.71 863.702 320.215Q865.628 323.719 867.485 327.261Q869.343 330.802 871.131 334.379Q872.92 337.956 874.639 341.566Q876.357 345.177 878.006 348.82Q879.654 352.464 881.232 356.138Q882.809 359.813 884.315 363.518Q885.821 367.222 887.255 370.955Q888.689 374.688 890.05 378.448Q891.411 382.208 892.699 385.994Q893.988 389.78 895.202 393.59C925.593 488.334 914.885 603.283 869.358 691.571Q865.415 699.166 861.184 706.604C853.311 695.772 843.957 686.442 832.634 679.212C818.419 670.135 802.299 665.703 785.569 669.429C728.68 682.099 665.222 783.516 635.376 830.994C627.274 827.472 618.937 825.371 610.174 824.277C567.552 818.957 527.258 846.989 495.261 871.819C457.776 853.46 424.282 834.577 381.928 830.599C366.462 801.999 349.307 774.594 331.875 747.17C308.277 710.043 284.437 672.574 253.366 641.124C247.986 635.678 242.26 630.359 235.826 626.177C221.248 616.703 201.593 611.71 184.335 611.289C179.622 611.174 174.956 612.361 170.281 612.276L169.346 612.252C172.845 610.204 177.143 608.952 180.914 607.443Q189.274 604.078 197.446 600.278C200.901 587.169 205.594 573.227 210.673 560.674L215.756 558.36C217.546 559.199 220.475 561.115 221.669 562.674C254.103 583.977 288.039 592.289 326.399 584.376Q327.96 584.041 329.513 583.668Q331.066 583.295 332.609 582.885Q334.152 582.474 335.685 582.026Q337.217 581.578 338.738 581.092Q340.26 580.607 341.769 580.084Q343.278 579.562 344.773 579.003Q346.269 578.444 347.751 577.848Q349.232 577.253 350.699 576.622Q352.166 575.99 353.617 575.323Q355.068 574.656 356.502 573.954Q357.936 573.252 359.353 572.515Q360.769 571.778 362.167 571.007Q363.566 570.236 364.945 569.431Q366.324 568.626 367.683 567.787Q369.042 566.948 370.38 566.077Q371.718 565.206 373.034 564.302Q374.35 563.398 375.644 562.462Q376.938 561.527 378.209 560.56Q379.48 559.593 380.727 558.595Q381.974 557.597 383.196 556.57Q384.418 555.542 385.614 554.484Q386.811 553.427 387.982 552.341Q389.152 551.255 390.296 550.14Q391.439 549.026 392.555 547.884Q393.672 546.742 394.759 545.573Q395.847 544.404 396.907 543.209Q397.966 542.014 398.995 540.794Q400.025 539.573 401.024 538.328Q402.024 537.083 402.993 535.813Q403.962 534.544 404.899 533.251Q405.837 531.959 406.743 530.644Q407.649 529.329 408.522 527.992C412.193 522.386 415.496 516.381 418.087 510.195C442.243 516.871 473.678 519.278 498.267 514.753C501.46 518.279 504.301 521.976 507.055 525.852C502.801 526.49 497.491 526.949 494.753 530.759C493.369 532.684 492.607 535.458 493.184 537.793C493.74 540.046 495.475 541.697 497.449 542.792C504.286 546.587 530.798 546.459 538.604 544.262C540.853 543.629 542.244 542.205 543.362 540.191C544.333 538.445 544.922 536.467 544.483 534.478C543.884 531.769 541.344 528.952 538.926 527.715C533.823 525.104 526.412 526.045 520.805 526.145C516.771 520.596 512.704 515.119 507.908 510.191C516.571 501.59 523.478 492.519 523.615 479.789C523.669 474.741 522.533 470.176 521.044 465.387C536.994 439.915 554.359 415.312 569.661 389.438Q578.393 374.683 586.534 359.594C591.121 350.909 596.791 335.749 603.017 328.983C608.799 322.699 617.927 318.493 625.034 313.754C630.497 310.112 635.709 306.091 640.929 302.112C645.039 312.365 649.058 322.668 653.284 332.874C617.77 355.898 598.928 393.165 590.572 433.633C589.987 436.462 589.329 440.593 591.337 443.022C593.26 445.348 597.18 445.489 599.958 445.669C598.747 484.11 609.602 519.743 636.272 548.221Q637.342 549.363 638.439 550.478Q639.537 551.592 640.662 552.679Q641.788 553.766 642.939 554.825Q644.091 555.884 645.269 556.914Q646.447 557.943 647.65 558.943Q648.854 559.943 650.081 560.913Q651.309 561.883 652.561 562.822Q653.812 563.761 655.087 564.668Q656.361 565.575 657.658 566.451Q658.955 567.326 660.273 568.169Q661.591 569.012 662.93 569.821Q664.268 570.631 665.627 571.407Q666.985 572.183 668.363 572.925Q669.74 573.667 671.135 574.375Q672.531 575.082 673.944 575.755Q675.356 576.427 676.785 577.064Q678.214 577.702 679.659 578.303Q681.103 578.904 682.562 579.469Q684.021 580.035 685.493 580.563Q686.966 581.092 688.451 581.584Q689.936 582.075 691.433 582.53Q692.93 582.985 694.438 583.402Q695.946 583.819 697.464 584.199Q698.981 584.578 700.508 584.92Q702.035 585.261 703.57 585.565Q705.105 585.868 706.647 586.133Q708.188 586.399 709.737 586.625Q711.285 586.852 712.838 587.04Q714.391 587.228 715.948 587.377Q717.506 587.526 719.066 587.637Q720.627 587.747 722.19 587.819Q723.753 587.89 725.317 587.923C759.655 588.849 792.004 575.671 816.764 552.02Q817.947 550.904 819.102 549.759Q820.257 548.614 821.383 547.441Q822.509 546.268 823.605 545.067Q824.702 543.866 825.768 542.639Q826.835 541.411 827.871 540.157Q828.906 538.904 829.911 537.625Q830.915 536.346 831.887 535.042Q832.859 533.739 833.799 532.411Q834.739 531.084 835.645 529.734Q836.551 528.384 837.424 527.012Q838.296 525.639 839.135 524.246Q839.973 522.852 840.776 521.439Q841.58 520.025 842.348 518.591Q843.116 517.158 843.848 515.706Q844.581 514.254 845.277 512.785Q845.973 511.315 846.632 509.828Q847.291 508.342 847.914 506.839Q848.536 505.337 849.121 503.82Q849.706 502.302 850.253 500.771Q850.799 499.24 851.308 497.695Q851.817 496.15 852.287 494.594Q852.758 493.037 853.189 491.469Q853.621 489.901 854.013 488.323Q854.406 486.745 854.759 485.158Q855.112 483.57 855.426 481.975Q855.74 480.379 856.014 478.776Q856.288 477.173 856.522 475.564Q856.756 473.955 856.951 472.34Q857.145 470.726 857.299 469.107Q857.453 467.488 857.567 465.866Q857.681 464.244 857.754 462.619Q857.828 460.995 857.861 459.369C858.49 424.818 846.537 391.496 822.413 366.505C806.328 349.843 785.905 336.338 763.42 330.263C755.736 328.188 747.713 327.688 740.114 325.306C740.317 322.256 740.695 319.607 738.473 317.124C736.25 314.641 732.939 314.21 729.786 314.145C725.308 314.053 706.977 315.964 704.472 314.557C702.278 310.642 703.497 302.404 703.621 297.86C703.941 286.142 703.558 273.876 704.733 262.247C705.447 255.183 707.145 248.137 708.143 241.094C709.99 228.076 710.906 215.009 711.523 201.882C711.858 194.763 712.363 187.363 711.702 180.254C711.187 174.721 709.798 168.548 707.753 163.378Q703.967 160.104 700.014 157.033ZM215.756 558.36L210.673 560.674C205.594 573.227 200.901 587.169 197.446 600.278C203.11 598.365 212.992 592.955 218.316 589.928C221.771 587.964 226.668 584.807 227.517 580.661C228.181 577.416 224.376 567.779 222.573 564.883C222.179 564.249 221.953 563.935 221.756 563.178C221.713 563.013 221.698 562.842 221.669 562.674C220.475 561.115 217.546 559.199 215.756 558.36Z"/>
	<path fill="#441F26" d="M616.778 589.562C618.577 589.447 620.54 589.303 622.331 589.557C632.102 590.947 639.258 601.82 644.896 608.959C641.558 609 638.286 608.898 634.957 608.666L631.241 605.037C627.405 601.873 620.396 595.504 615.059 595.961C613.565 596.088 612.129 597.028 610.826 597.703C608.698 598.807 607.075 599.331 604.659 599.102C603.49 598.991 603.558 598.996 602.829 598.093C602.85 598.017 602.853 597.932 602.893 597.864C605.031 594.216 613.004 591.08 616.778 589.562Z"/>
	<defs>
		<linearGradient id="gradient_0" gradientUnits="userSpaceOnUse" x1="212.96825" y1="579.68378" x2="225.70683" y2="583.58795">
			<stop offset="0" stop-color="#FFFFFE" stop-opacity="0.72549021"/>
			<stop offset="1" stop-color="white" stop-opacity="0.94117647"/>
		</linearGradient>
	</defs>
	<path fill="url(#gradient_0)" d="M215.756 558.36C217.546 559.199 220.475 561.115 221.669 562.674C221.698 562.842 221.713 563.013 221.756 563.178C221.953 563.935 222.179 564.249 222.573 564.883C224.376 567.779 228.181 577.416 227.517 580.661C226.668 584.807 221.771 587.964 218.316 589.928C212.992 592.955 203.11 598.365 197.446 600.278C200.901 587.169 205.594 573.227 210.673 560.674L215.756 558.36Z"/>
	<path fill="#441F26" d="M595.339 721.626C605.338 721.195 616.122 721.829 626.087 722.742C623.841 723.754 620.919 724.251 618.908 725.593C617.557 726.495 617.353 727.482 617.14 729.023C616.117 736.414 616.205 779.409 619.501 783.813C620.646 784.551 621.331 784.781 622.698 784.929C623.215 784.985 623.735 785.016 624.248 785.102C625.52 785.314 626.204 785.384 626.963 786.49L626.364 787.435C621.208 787.632 598.713 788.835 595.395 786.785C597.312 784.654 600.164 785.634 601.756 782.714C603.934 778.719 603.686 744.225 603.35 737.58C603.167 733.971 602.853 730.314 601.857 726.83C601.803 726.643 601.745 726.458 601.69 726.273C600.251 725.746 598.558 725.268 597.22 724.53C595.863 723.782 595.743 723.052 595.339 721.626Z"/>
	<path fill="#441F26" d="M531.919 721.653C538.019 721.158 544.192 722.361 550.304 722.511C560.717 722.767 571.114 722.128 581.497 721.427C581.336 725.067 581.796 735.013 579.305 737.64C576.029 736.523 578.287 731.506 575.756 729.315C571.358 725.509 559.931 727.184 554.424 727.527Q554.348 738.847 554.423 750.167C561.07 750.73 567.955 750.657 574.495 749.269L578.978 744.883C578.988 750.244 579.499 756.654 577.85 761.762L576.964 762.022L576.445 760.826C575.918 759.552 575.422 758.29 574.36 757.361C569.647 753.241 559.914 754.775 554.051 755.027C553.874 761.93 552.198 775.966 555.442 781.863C556.604 783.974 558.09 784.833 560.359 785.471C561.4 785.763 562.027 785.83 562.769 786.667L562.202 787.22C552.754 788.729 541.533 787.779 531.975 787.188C534.312 785.927 536.774 784.885 539.191 783.786C540.97 773.532 542.433 734.06 538.905 725.668C537.579 724.42 535.9 724.546 534.237 724.064C532.715 723.624 532.566 723.035 531.919 721.653Z"/>
	<path fill="#441F26" d="M427.338 717.218C430.383 717.025 434.257 716.936 437.128 718.024C439.365 718.872 441.184 720.276 442.131 722.525C443.845 726.596 442.268 732.358 440.601 736.255C439.988 732.611 439.37 729.106 436.835 726.256C433.993 723.06 429.761 722.226 425.664 722.124C420.437 721.994 414.327 722.862 410.508 726.774C408.959 728.362 407.931 730.217 408.104 732.486C408.714 740.467 435.117 750.962 441.441 756.898C444.542 759.808 446.987 763.699 446.9 768.08C446.802 773.038 443.598 777.738 440.137 781.055C432.811 788.079 422.431 788.69 412.879 788.384C410.432 788.13 407.888 787.878 405.499 787.274C402.127 786.421 398.858 784.904 397.142 781.711C395.059 777.835 395.518 772.276 396.738 768.17L397.33 767.865C399.957 771.08 399.506 776.397 402.409 779.403C406.273 783.404 411.577 784.668 416.926 784.666C422.475 784.663 427.836 783.342 431.757 779.195C433.363 777.496 434.751 775.373 434.574 772.937C433.921 763.929 411.223 755.35 404.65 749.314C401.11 746.062 398.341 741.843 398.183 736.91C398.048 732.664 399.948 728.205 402.828 725.124C409.011 718.508 418.873 717.705 427.338 717.218Z"/>
	<path fill="#441F26" d="M564.621 612.754Q575.325 612.498 586.032 612.353C586.111 618.238 585.136 624.138 583.574 629.797C582.208 624.957 581.189 622.431 576.794 619.574C570.623 619.128 564.255 619.492 558.094 619.96Q558.135 632.972 558.449 645.981C565.319 646.119 572.088 645.833 578.93 645.256L583.687 640.767C583.648 645.511 584.676 656.05 581.826 659.74C581.529 659.65 581.212 659.61 580.936 659.469C580.027 659.002 579.581 658.127 579.325 657.202C579.043 656.185 578.713 655.433 578.218 654.499C573.619 650.854 563.666 652.005 557.974 651.96L557.968 665.391C558.008 670.276 557.791 676.434 559.078 681.12C560.774 687.295 564.426 685.966 568.881 688.577L568.729 689.194C564.769 690.792 540.518 690.216 535.662 689.561L535.497 688.829C537.26 687.16 540.114 686.738 542.274 685.684C543.202 685.231 543.775 684.877 544.137 683.879C546.127 678.394 546.252 622.363 543.882 618.424C542.73 616.509 540.215 615.76 538.185 615.32C536.313 614.914 534.643 614.376 532.846 613.712C543.02 611.847 554.28 612.733 564.621 612.754Z"/>
	<path fill="#441F26" d="M640.178 612.291L646.727 611.808C646.596 618.712 645.409 625.256 643.445 631.869C642.852 628.084 642.427 624.375 639.378 621.672C634.681 617.508 625.044 619.184 619.173 619.527C620.108 627.991 619.505 636.947 619.378 645.469C624.5 645.756 630.215 646.541 635.29 645.732C639.88 645.001 642.018 643.112 644.569 639.434C644.579 644.952 645.477 653.114 643.328 658.257C642.855 659.389 643.191 659.048 642.184 659.477C639.926 657.689 640.197 655.071 638.3 653.371C634.707 650.15 623.996 651.634 619.499 652.039C619.217 659.195 618.342 667.059 619.457 674.115C619.922 677.058 621.131 679.961 623.721 681.632C628.364 684.627 634.966 683.215 640.022 682.194C645.374 679.748 644.682 675.728 648.304 673.484C648.921 674.464 648.817 674.012 648.882 674.905C649.174 678.974 648.849 686.034 645.727 688.994C644.375 690.276 642.789 690.375 641.014 690.521C632.691 691.209 623.975 690.098 615.629 689.794C609.163 689.559 602.667 689.98 596.192 689.941C598.751 688.108 603.734 685.747 605.128 682.914C607.365 678.369 607.332 624.404 605.471 618.891C604.605 616.324 599.744 615.737 597.461 614.665L597.183 613.827C598.272 612.912 599.098 612.786 600.505 612.631C607.074 611.906 614.191 612.51 620.803 612.686C627.3 612.859 633.687 612.712 640.178 612.291Z"/>
	<path fill="#441F26" d="M487.488 718.958C496.149 725.326 511.652 771.554 522.901 784.736C524.697 785.063 526.098 785.422 527.729 786.251L527.893 786.883C527.721 786.947 527.553 787.023 527.376 787.074C523.291 788.263 504.315 788.396 500.945 786.446L501.11 785.739C502.212 785.562 502.832 785.46 503.832 784.924C505.031 780.48 500.202 772.596 498.217 768.489L482.292 768.444L470.712 768.222C469.098 771.744 466.325 775.675 465.48 779.436C465.128 781.002 465.226 782.514 466.229 783.845C468.207 786.468 472.027 786.746 475.017 787.28C465.225 787.778 455.382 787.529 445.584 787.342Q446.769 787.005 447.945 786.639C450.506 785.837 453.038 785.081 454.909 783.059C459.454 778.148 462.275 770.12 465.264 764.134C472.75 749.142 479.802 733.828 487.488 718.958Z"/>
	<path fill="#FEFEFE" d="M485.618 739.428C490.253 745.463 492.542 755.744 495.016 763.003L482.311 762.937L473.23 762.915C476.782 754.769 480.651 746.816 485.618 739.428Z"/>
	<path fill="#441F26" d="M490.376 609.143C492.344 609.702 493.284 610.881 494.261 612.601C497.293 617.937 499.15 624.323 501.32 630.076C507.473 646.388 516.12 672.757 526.287 686.296C528.818 686.676 531.216 687.073 533.661 687.869L533.932 689.18L533.896 687.991L534.112 689.163C527.102 691.825 517.211 690.46 510.042 689.281C508.621 679.496 504.256 670.952 500.13 662.076C496.048 662.517 491.988 662.437 487.89 662.394L476.995 662.492C474.874 666.683 472.676 670.892 470.87 675.229C469.677 678.093 467.677 682.953 469.311 685.901C470.269 687.63 472.203 687.831 473.95 688.203C474.936 688.413 474.486 688.151 475.192 689.028C471.495 691.329 452.503 690.158 447.577 689.385C450.868 687.748 454.313 686.399 457.643 684.832C466.302 671.992 475.27 647.577 480.797 632.423C483.689 624.493 486.003 616.43 490.376 609.143Z"/>
	<path fill="#FEFEFE" d="M488.528 630.271C491.605 633.135 496.357 650.96 497.961 656.003L488.75 656.028L479.493 656.022C482.354 647.394 485.505 638.845 488.528 630.271Z"/>
	<path fill="#441F26" d="M414.891 594.213C426.067 593.701 437.225 596.019 448.059 598.455C447.996 603.234 448.595 616.225 446.368 619.78C441.684 614.395 444.223 609.204 434.262 603.959C424.686 598.916 411.183 598.812 400.987 601.864C392.633 604.365 384.966 609.757 380.884 617.614C375.068 628.809 375.788 644.822 379.53 656.52C382.799 666.737 389.192 674.885 398.802 679.795C409.577 685.3 422.102 685.673 433.499 682.01C441.838 677.227 443.486 670.768 449.759 664.629C449.741 672.387 448.044 678.821 445.599 686.128C439.474 689.95 432.348 691.179 425.253 691.674C408.757 692.824 390.571 690.566 377.682 679.25C368.111 670.848 363.029 658.725 362.229 646.15C361.398 633.094 365.025 620.043 373.815 610.153C384.524 598.105 399.527 595.13 414.891 594.213Z"/>
</svg>
